<svg width="207" height="25" viewBox="0 0 207 25" fill="none" xmlns="http://www.w3.org/2000/svg">
<path d="M6.63574 19.5021C2.65103 19.5021 0.624023 16.5282 0.624023 13.0326C0.624023 9.5369 2.65103 6.56299 6.63574 6.56299C10.6031 6.56299 12.6301 9.5369 12.6301 13.0326C12.6301 16.5282 10.6031 19.5021 6.63574 19.5021ZM2.42581 13.0326C2.42581 15.6934 3.74249 17.9021 6.63574 17.9021C9.52899 17.9021 10.8284 15.6934 10.8284 13.0326C10.8284 10.3717 9.52899 8.16299 6.63574 8.16299C3.74249 8.16299 2.42581 10.3717 2.42581 13.0326ZM13.5942 10.2499H15.1535V11.6239C15.7772 10.6326 16.7993 10.0412 18.168 10.0412C20.8533 10.0412 22.326 12.0586 22.326 14.7717C22.326 17.4847 20.8533 19.5021 18.168 19.5021C16.834 19.5021 15.8638 18.9456 15.2228 18.0239V22.7717H13.5942V10.2499ZM15.2054 14.7717C15.2054 16.6847 16.089 18.0586 17.9081 18.0586C19.7446 18.0586 20.6281 16.6847 20.6281 14.7717C20.6281 12.8586 19.7446 11.4847 17.9081 11.4847C16.089 11.4847 15.2054 12.8586 15.2054 14.7717ZM27.6727 19.5021C25.0565 19.5021 23.3933 17.4847 23.3933 14.7717C23.3933 12.0586 25.0565 10.0412 27.6727 10.0412C30.2714 10.0412 31.9346 12.0412 31.9346 14.8065V15.3282H25.1085C25.2644 16.963 26.148 18.076 27.6727 18.076C28.8161 18.076 29.6824 17.5021 30.0982 16.5456H31.7614C31.1896 18.3369 29.6824 19.5021 27.6727 19.5021ZM25.1258 13.9543H30.2194C29.9769 12.4586 29.1107 11.4673 27.6727 11.4673C26.2173 11.4673 25.351 12.4586 25.1258 13.9543ZM38.9579 13.5717C38.9579 12.3717 38.3516 11.5021 37.0002 11.5021C36.3246 11.5021 34.5574 11.8499 34.5574 14.2499V19.2934H32.9289V10.2499H34.4881V11.5543C35.0945 10.7021 36.0474 10.0412 37.3814 10.0412C39.6163 10.0412 40.5867 11.676 40.5867 13.4152V19.2934H38.9579V13.5717ZM47.3524 19.5021C44.4764 19.5021 42.2415 18.163 42.1549 15.0847H43.9047C43.9913 17.2934 45.5852 17.9717 47.3697 17.9717C49.0848 17.9717 50.2976 17.2586 50.2976 15.8326C50.2976 14.7543 49.7085 14.2152 46.8846 13.6239C44.026 13.0326 42.5534 12.1456 42.5534 9.86734C42.5534 7.84994 44.3898 6.56299 46.8846 6.56299C50.3496 6.56299 51.7702 8.40647 51.8222 10.6847H50.0897C49.9857 8.98038 49.0502 8.09342 46.8846 8.09342C45.3427 8.09342 44.3378 8.77168 44.3378 9.84994C44.3378 10.963 44.719 11.5195 47.5429 12.0934C51.1985 12.8412 52.082 13.9717 52.082 15.8152C52.082 18.076 50.1763 19.5021 47.3524 19.5021ZM57.4157 19.5021C54.661 19.5021 52.9978 17.4847 52.9978 14.7717C52.9978 12.0586 54.661 10.0412 57.4157 10.0412C60.1703 10.0412 61.8335 12.0586 61.8335 14.7717C61.8335 17.4847 60.1703 19.5021 57.4157 19.5021ZM54.6957 14.7717C54.6957 16.6847 55.5792 18.0586 57.4157 18.0586C59.2521 18.0586 60.1357 16.6847 60.1357 14.7717C60.1357 12.8586 59.2521 11.4847 57.4157 11.4847C55.5792 11.4847 54.6957 12.8586 54.6957 14.7717ZM64.4328 15.9717C64.4328 17.1717 65.0391 18.0412 66.3905 18.0412C67.0661 18.0412 68.8333 17.6934 68.8333 15.2934V10.2499H70.4618V19.2934H68.9026V17.9891C68.2962 18.8412 67.3433 19.5021 66.0093 19.5021C63.7744 19.5021 62.8042 17.8673 62.8042 16.1282V10.2499H64.4328V15.9717ZM71.8397 19.2934V10.2499H73.3989V11.8152C74.0919 10.5108 75.1141 10.1456 76.2402 10.1456H76.9332V11.7108H76.1882C74.6636 11.7108 73.4682 12.3543 73.4682 14.5804V19.2934H71.8397ZM81.6431 19.5021C79.0617 19.5021 77.3985 17.4847 77.3985 14.7717C77.3985 12.0586 79.0617 10.0412 81.6431 10.0412C83.93 10.0412 85.316 11.3804 85.5932 13.3456H83.9126C83.6874 12.1978 82.8558 11.4847 81.6431 11.4847C79.9799 11.4847 79.0963 12.8586 79.0963 14.7717C79.0963 16.6847 79.9799 18.0586 81.6431 18.0586C82.8732 18.0586 83.7048 17.3108 83.9126 16.1282H85.5932C85.3333 18.1282 83.7914 19.5021 81.6431 19.5021ZM90.6688 19.5021C88.0527 19.5021 86.3896 17.4847 86.3896 14.7717C86.3896 12.0586 88.0527 10.0412 90.6688 10.0412C93.2675 10.0412 94.9307 12.0412 94.9307 14.8065V15.3282H88.1047C88.2606 16.963 89.1442 18.076 90.6688 18.076C91.8122 18.076 92.6785 17.5021 93.0943 16.5456H94.7575C94.1857 18.3369 92.6785 19.5021 90.6688 19.5021ZM88.122 13.9543H93.2155C92.973 12.4586 92.1068 11.4673 90.6688 11.4673C89.2135 11.4673 88.3473 12.4586 88.122 13.9543ZM102.841 19.2934V8.3369H98.6832V6.77168H108.766V8.3369H104.608V19.2934H102.841ZM112.06 19.5021C109.305 19.5021 107.642 17.4847 107.642 14.7717C107.642 12.0586 109.305 10.0412 112.06 10.0412C114.814 10.0412 116.478 12.0586 116.478 14.7717C116.478 17.4847 114.814 19.5021 112.06 19.5021ZM109.34 14.7717C109.34 16.6847 110.223 18.0586 112.06 18.0586C113.896 18.0586 114.78 16.6847 114.78 14.7717C114.78 12.8586 113.896 11.4847 112.06 11.4847C110.223 11.4847 109.34 12.8586 109.34 14.7717ZM121.433 22.9804C118.99 22.9804 117.674 21.8326 117.483 19.9543H119.094C119.285 21.1543 120.151 21.6065 121.45 21.6065C122.732 21.6065 124.118 21.1717 124.118 19.0499V18.0065C123.477 18.9108 122.507 19.4499 121.191 19.4499C118.505 19.4499 117.033 17.4326 117.033 14.7369C117.033 12.0412 118.505 10.0412 121.191 10.0412C122.559 10.0412 123.547 10.6152 124.188 11.5717V10.2499H125.764V19.0499C125.764 21.8152 123.859 22.9804 121.433 22.9804ZM118.73 14.7369C118.73 16.6499 119.614 18.0065 121.45 18.0065C123.27 18.0065 124.153 16.6499 124.153 14.7369C124.153 12.8412 123.27 11.4673 121.45 11.4673C119.614 11.4673 118.73 12.8412 118.73 14.7369ZM131.007 19.5021C128.391 19.5021 126.728 17.4847 126.728 14.7717C126.728 12.0586 128.391 10.0412 131.007 10.0412C133.606 10.0412 135.269 12.0412 135.269 14.8065V15.3282H128.443C128.599 16.963 129.482 18.076 131.007 18.076C132.15 18.076 133.017 17.5021 133.432 16.5456H135.096C134.524 18.3369 133.017 19.5021 131.007 19.5021ZM128.46 13.9543H133.554C133.311 12.4586 132.445 11.4673 131.007 11.4673C129.552 11.4673 128.685 12.4586 128.46 13.9543ZM137.165 7.46734H138.81V10.2499H141.201V11.6412H138.81V16.9804C138.81 17.6239 139.07 17.9021 139.729 17.9021H141.201V19.2934H139.382C137.823 19.2934 137.165 18.6673 137.165 17.1717V11.6412H135.519V10.2499H137.165V7.46734ZM142.363 19.2934V6.77168H143.992V11.4673C144.598 10.6499 145.534 10.0412 146.816 10.0412C149.051 10.0412 150.021 11.676 150.021 13.4152V19.2934H148.392V13.5717C148.392 12.3717 147.786 11.5021 146.434 11.5021C145.759 11.5021 143.992 11.8499 143.992 14.2499V19.2934H142.363ZM155.262 19.5021C152.646 19.5021 150.983 17.4847 150.983 14.7717C150.983 12.0586 152.646 10.0412 155.262 10.0412C157.861 10.0412 159.524 12.0412 159.524 14.8065V15.3282H152.698C152.854 16.963 153.737 18.076 155.262 18.076C156.405 18.076 157.272 17.5021 157.687 16.5456H159.351C158.779 18.3369 157.272 19.5021 155.262 19.5021ZM152.715 13.9543H157.809C157.566 12.4586 156.7 11.4673 155.262 11.4673C153.807 11.4673 152.94 12.4586 152.715 13.9543ZM160.518 19.2934V10.2499H162.078V11.8152C162.771 10.5108 163.793 10.1456 164.919 10.1456H165.612V11.7108H164.867C163.342 11.7108 162.147 12.3543 162.147 14.5804V19.2934H160.518Z" fill="black"/>
<path d="M167.612 7.78036V5.9021H168.099L168.599 7.36297L169.099 5.9021H169.593V7.78036H169.262V6.35862L168.749 7.78036H168.45L167.943 6.35862V7.78036H167.612ZM165.857 6.20862V5.9021H167.417V6.20862H166.812V7.78036H166.462V6.20862H165.857Z" fill="black"/>
<rect x="172" y="7" width="35" height="15" rx="7.5" fill="black"/>
<path d="M182.4 18.12C181.66 18.12 181.07 17.78 180.77 17.2L180.74 18H179.75V10.9H180.81V13.43C181.08 12.97 181.66 12.56 182.4 12.56C183.79 12.56 184.66 13.64 184.66 15.34C184.66 17.04 183.79 18.12 182.4 18.12ZM182.23 17.2C183.04 17.2 183.56 16.49 183.56 15.34C183.56 14.17 183.05 13.48 182.24 13.48C181.34 13.48 180.81 14.17 180.81 15.34C180.81 16.49 181.34 17.2 182.23 17.2ZM187.426 18.12C185.876 18.12 184.906 17.02 184.906 15.34C184.906 13.66 185.876 12.56 187.396 12.56C188.846 12.56 189.826 13.59 189.826 15.38V15.65H186.006C186.056 16.69 186.586 17.21 187.436 17.21C188.056 17.21 188.476 16.9 188.646 16.4L189.746 16.47C189.466 17.46 188.596 18.12 187.426 18.12ZM186.006 14.85H188.706C188.636 13.91 188.116 13.46 187.396 13.46C186.636 13.46 186.126 13.95 186.006 14.85ZM192.245 18C191.235 18 190.765 17.56 190.765 16.56V13.55H189.955V12.68H190.765V11.43H191.825V12.68H193.235V13.55H191.825V16.48C191.825 16.98 192.035 17.13 192.475 17.13H193.235V18H192.245ZM195.209 18.12C194.099 18.12 193.389 17.59 193.389 16.67C193.389 15.76 193.919 15.27 195.089 15.04L196.919 14.69C196.919 13.87 196.529 13.46 195.769 13.46C195.089 13.46 194.709 13.77 194.569 14.35L193.479 14.28C193.679 13.22 194.509 12.56 195.769 12.56C197.209 12.56 197.979 13.37 197.979 14.75V16.82C197.979 17.08 198.059 17.16 198.259 17.16H198.449V18C198.379 18.02 198.219 18.03 198.059 18.03C197.449 18.03 197.089 17.8 197.009 17.18C196.739 17.74 196.039 18.12 195.209 18.12ZM195.379 17.28C196.339 17.28 196.919 16.68 196.919 15.83V15.49L195.359 15.79C194.719 15.91 194.489 16.16 194.489 16.57C194.489 17.03 194.809 17.28 195.379 17.28Z" fill="white"/>
</svg>
