<svg width="11" height="13" viewBox="0 0 11 13" fill="none" xmlns="http://www.w3.org/2000/svg">
<g clip-path="url(#clip0_539_179)">
<path d="M4.63951 9.34891C4.6375 8.85957 4.19952 8.46466 3.66124 8.46686C3.12296 8.46906 2.68822 8.86754 2.69022 9.35688C2.69223 9.84623 3.13021 10.2411 3.66849 10.2389C4.20677 10.2367 4.64151 9.83826 4.63951 9.34891Z" stroke="black" stroke-linecap="round" stroke-linejoin="round"/>
<path d="M4.61119 2.26237C4.60918 1.77302 4.1712 1.37811 3.63292 1.38031C3.09464 1.38251 2.6599 1.78099 2.6619 2.27034C2.66391 2.75968 3.10189 3.15459 3.64017 3.15239C4.17845 3.15019 4.61319 2.75171 4.61119 2.26237Z" stroke="black" stroke-linecap="round" stroke-linejoin="round"/>
<path d="M9.48326 2.24247C9.48125 1.75312 9.04327 1.35822 8.50499 1.36042C7.96671 1.36262 7.53197 1.76109 7.53397 2.25044C7.53598 2.73978 7.97396 3.13469 8.51224 3.13249C9.05052 3.13029 9.48526 2.73181 9.48326 2.24247Z" stroke="black" stroke-linecap="round" stroke-linejoin="round"/>
<path d="M3.6394 3.15243L3.66113 8.46741" stroke="black" stroke-linecap="round" stroke-linejoin="round"/>
<path d="M3.65967 8.02441C3.65667 7.29057 4.30863 6.69299 5.11585 6.68969L7.55188 6.67973C8.09005 6.67753 8.52467 6.27916 8.52267 5.78992L8.51181 3.13243" stroke="black" stroke-linecap="round" stroke-linejoin="round"/>
</g>
<defs>
<clipPath id="clip0_539_179">
<rect width="11.9615" height="9.99588" fill="white" transform="translate(1 12.027) rotate(-90.2343)"/>
</clipPath>
</defs>
</svg>
