<svg width="11" height="10" viewBox="0 0 11 10" fill="none" xmlns="http://www.w3.org/2000/svg">
<path fill-rule="evenodd" clip-rule="evenodd" d="M9.16667 1.20013L1.83333 1.20014C1.22582 1.20014 0.733333 1.69264 0.733333 2.30014V5.96682C0.733333 6.57436 1.22582 7.0668 1.83333 7.0668H5.50002C5.59727 7.0668 5.69053 7.10544 5.75929 7.17423L7.33333 8.74826V7.43346C7.33333 7.23099 7.49753 7.0668 7.7 7.0668H9.16667C9.77416 7.0668 10.2667 6.57436 10.2667 5.96682V2.30013C10.2667 1.69261 9.77416 1.20013 9.16667 1.20013ZM1.83333 0.466812L9.16667 0.466797C10.1792 0.466797 11 1.28761 11 2.30013V5.96682C11 6.97931 10.1792 7.80013 9.16667 7.80013H8.06667V9.63346C8.06667 9.78174 7.97735 9.91543 7.84029 9.97219C7.7033 10.0289 7.54556 9.99756 7.44069 9.89277L5.34814 7.80013H1.83333C0.820813 7.80013 0 6.97931 0 5.96682V2.30014C0 1.28762 0.820805 0.466819 1.83333 0.466812Z" fill="white"/>
</svg>
