<svg width="11" height="15" viewBox="0 0 11 15" fill="none" xmlns="http://www.w3.org/2000/svg">
<path fill-rule="evenodd" clip-rule="evenodd" d="M5.49988 0.875C3.49785 0.875 1.87488 2.49797 1.87488 4.5C1.87488 6.15288 2.98112 7.54738 4.49361 7.98351C3.29958 8.12901 2.27545 8.55134 1.50395 9.31167C0.522043 10.2794 0.0249023 11.72 0.0249023 13.5999C0.0249023 13.8623 0.237572 14.0749 0.499902 14.0749C0.762242 14.0749 0.974902 13.8623 0.974902 13.5999C0.974902 11.8799 1.42774 10.7206 2.17079 9.9883C2.91524 9.25463 4.02662 8.87499 5.49983 8.87499C6.97305 8.87499 8.08448 9.25463 8.82898 9.98831C9.57198 10.7206 10.0249 11.8799 10.0249 13.5999C10.0249 13.8623 10.2375 14.0749 10.4999 14.0749C10.7622 14.075 10.9749 13.8623 10.9749 13.6C10.9749 11.72 10.4777 10.2794 9.49578 9.31166C8.72428 8.55135 7.70013 8.12903 6.50613 7.98352C8.01858 7.5474 9.12488 6.15289 9.12488 4.5C9.12488 2.49797 7.50191 0.875 5.49988 0.875ZM2.82488 4.5C2.82488 3.02264 4.02252 1.825 5.49988 1.825C6.97724 1.825 8.17488 3.02264 8.17488 4.5C8.17488 5.97736 6.97724 7.175 5.49988 7.175C4.02252 7.175 2.82488 5.97736 2.82488 4.5Z" fill="black"/>
</svg>
