<svg width="11" height="11" viewBox="0 0 11 11" fill="none" xmlns="http://www.w3.org/2000/svg">
<path fill-rule="evenodd" clip-rule="evenodd" d="M10.8536 0.853552C11.0488 0.658292 11.0488 0.341713 10.8536 0.146453C10.6583 -0.0488175 10.3417 -0.0488175 10.1464 0.146453L5.5 4.79289L0.853552 0.146453C0.658292 -0.0488175 0.341713 -0.0488175 0.146453 0.146453C-0.0488175 0.341713 -0.0488175 0.658292 0.146453 0.853552L4.79289 5.5L0.146453 10.1464C-0.0488175 10.3417 -0.0488175 10.6583 0.146453 10.8536C0.341713 11.0488 0.658292 11.0488 0.853552 10.8536L5.5 6.20711L10.1464 10.8536C10.3417 11.0488 10.6583 11.0488 10.8536 10.8536C11.0488 10.6583 11.0488 10.3417 10.8536 10.1464L6.20711 5.5L10.8536 0.853552Z" fill="black" fill-opacity="0.2"/>
</svg>
