<svg width="15" height="15" viewBox="0 0 15 15" fill="none" xmlns="http://www.w3.org/2000/svg">
  <path fill-rule="evenodd" clip-rule="evenodd" d="M5.07465 1.82589C5.03281 1.81931 4.99028 1.8183 4.94817 1.82289C4.10697 1.91451 2.82687 2.36833 2.07129 2.77813C2.0212 2.8053 1.97635 2.84117 1.93883 2.88407C1.62516 3.24271 1.3406 3.82841 1.1172 4.38191C0.887589 4.95081 0.697435 5.55037 0.589079 5.98359C0.236374 7.39374 0.0426436 9.08733 0.0176364 10.6926C0.0163845 10.773 0.0353299 10.8524 0.0727347 10.9235C0.373821 11.4961 1.02029 12.0271 1.66823 12.4153C2.32346 12.8079 3.08746 13.1183 3.70399 13.1779C3.85349 13.1923 4.00112 13.1359 4.10296 13.0256C4.25734 12.8582 4.51944 12.4677 4.71759 12.1644C4.80753 12.0268 4.89171 11.8954 4.95859 11.7902C5.62037 11.9107 6.45057 11.9802 7.50016 11.9802C8.54858 11.9802 9.3781 11.9108 10.0395 11.7906C10.1063 11.8958 10.1904 12.027 10.2802 12.1644C10.4784 12.4677 10.7405 12.8582 10.8948 13.0256C10.9967 13.1359 11.1443 13.1923 11.2938 13.1779C11.9103 13.1183 12.6743 12.8079 13.3296 12.4153C13.9775 12.0271 14.624 11.4961 14.9251 10.9235C14.9625 10.8524 14.9814 10.773 14.9802 10.6926C14.9552 9.08733 14.7614 7.39374 14.4087 5.98359C14.3004 5.55037 14.1102 4.95081 13.8806 4.38191C13.6572 3.82841 13.3726 3.24271 13.059 2.88407C13.0215 2.84117 12.9766 2.8053 12.9265 2.77813C12.1709 2.36833 10.8908 1.91451 10.0496 1.82289C10.0075 1.8183 9.96503 1.81931 9.92319 1.82589C9.7169 1.8583 9.53924 1.96463 9.40823 2.0636C9.26991 2.16809 9.14144 2.29673 9.03054 2.42687C8.86982 2.61549 8.71451 2.84493 8.61442 3.0623C8.27251 3.03506 7.90152 3.02005 7.50014 3.02005C7.09784 3.02005 6.72607 3.03513 6.38351 3.06249C6.28342 2.84506 6.12806 2.61554 5.9673 2.42687C5.8564 2.29673 5.72792 2.16809 5.58961 2.0636C5.4586 1.96463 5.28094 1.8583 5.07465 1.82589ZM11.0182 11.5383C11.0396 11.5714 11.0616 11.6052 11.0839 11.6393C11.217 11.8431 11.3488 12.0386 11.4509 12.181C11.8476 12.0917 12.3521 11.8819 12.8362 11.5918C13.3796 11.2662 13.8099 10.8919 14.0178 10.574C13.9853 9.06763 13.7994 7.50374 13.4774 6.21653C13.3801 5.82764 13.2039 5.27026 12.9904 4.74122C12.7894 4.24331 12.5754 3.82167 12.3881 3.57925C11.7377 3.24224 10.713 2.88587 10.0455 2.78992C10.0309 2.79844 10.0114 2.81107 9.98689 2.8296C9.91877 2.88105 9.84032 2.95671 9.76125 3.0495C9.71973 3.09822 9.6818 3.14715 9.64782 3.19454C9.95314 3.25036 10.2254 3.31715 10.4663 3.39128C11.15 3.60165 11.6429 3.89044 11.8841 4.21205C12.0432 4.42413 12.0002 4.72499 11.7881 4.88405C11.576 5.04311 11.2752 5.00013 11.1161 4.78805C11.0573 4.70966 10.8002 4.49845 10.1839 4.30882C9.58947 4.1259 8.7137 3.98005 7.50014 3.98005C6.28658 3.98005 5.41081 4.1259 4.8163 4.30882C4.20002 4.49845 3.94293 4.70966 3.88414 4.78805C3.72508 5.00013 3.42422 5.04311 3.21214 4.88405C3.00006 4.72499 2.95708 4.42413 3.11614 4.21205C3.35735 3.89044 3.85025 3.60165 4.53397 3.39128C4.77432 3.31732 5.04585 3.25067 5.3503 3.19493C5.31625 3.14743 5.27822 3.09836 5.23659 3.0495C5.15752 2.95671 5.07907 2.88105 5.01095 2.8296C4.98642 2.81107 4.96688 2.79844 4.95231 2.78992C4.28478 2.88587 3.26013 3.24224 2.60968 3.57925C2.4224 3.82167 2.20839 4.24331 2.00743 4.74122C1.7939 5.27026 1.61766 5.82764 1.52039 6.21653C1.19843 7.50374 1.0125 9.06763 0.980002 10.574C1.18786 10.8919 1.61821 11.2662 2.16162 11.5918C2.64571 11.8819 3.15017 12.0917 3.54694 12.181C3.64899 12.0386 3.78079 11.8431 3.91394 11.6393C3.9364 11.6049 3.95852 11.5709 3.9801 11.5376C3.19535 11.2592 2.77375 10.8759 2.50078 10.4665C2.35373 10.2459 2.41334 9.94783 2.63391 9.80079C2.85449 9.65374 3.1525 9.71334 3.29955 9.93392C3.56091 10.326 4.24369 11.0202 7.50016 11.0202C10.7566 11.0202 11.4393 10.3261 11.7007 9.93391C11.8478 9.71334 12.1458 9.65374 12.3664 9.80079C12.587 9.94784 12.6466 10.2459 12.4995 10.4665C12.2263 10.8763 11.8042 11.2599 11.0182 11.5383ZM4.08063 7.01226C4.32426 6.74989 4.6549 6.60167 5.00021 6.60003C5.34552 6.60167 5.67617 6.74989 5.9198 7.01226C6.16343 7.27464 6.30021 7.62979 6.30021 8.00003C6.30021 8.37026 6.16343 8.72541 5.9198 8.98779C5.67617 9.25016 5.34552 9.39838 5.00021 9.40003C4.6549 9.39838 4.32426 9.25016 4.08063 8.98779C3.83699 8.72541 3.70021 8.37026 3.70021 8.00003C3.70021 7.62979 3.83699 7.27464 4.08063 7.01226ZM9.99899 6.60003C9.65368 6.60167 9.32304 6.74989 9.0794 7.01226C8.83577 7.27464 8.69899 7.62979 8.69899 8.00003C8.69899 8.37026 8.83577 8.72541 9.0794 8.98779C9.32304 9.25016 9.65368 9.39838 9.99899 9.40003C10.3443 9.39838 10.6749 9.25016 10.9185 8.98779C11.1622 8.72541 11.299 8.37026 11.299 8.00003C11.299 7.62979 11.1622 7.27464 10.9185 7.01226C10.6749 6.74989 10.3443 6.60167 9.99899 6.60003Z"
  fill="black" fill-opacity="0.3"/>
</svg>