<svg width="15" height="12" viewBox="0 0 15 12" fill="none" xmlns="http://www.w3.org/2000/svg">
<g clip-path="url(#clip0_1254_3599)">
<mask id="mask0_1254_3599" style="mask-type:luminance" maskUnits="userSpaceOnUse" x="0" y="0" width="15" height="12">
<path d="M15 0H0V12H15V0Z" fill="white"/>
</mask>
<g mask="url(#mask0_1254_3599)">
<path d="M12.6981 1.06862C11.7421 0.615587 10.7169 0.281812 9.64494 0.0906457C9.62541 0.0869562 9.60592 0.0961764 9.59586 0.114617C9.46401 0.356801 9.31796 0.67275 9.21568 0.921085C8.06275 0.74283 6.91574 0.74283 5.78645 0.921085C5.68415 0.66723 5.5328 0.356801 5.40036 0.114617C5.3903 0.0967916 5.3708 0.0875715 5.35128 0.0906457C4.27994 0.281201 3.25473 0.614976 2.29808 1.06862C2.2898 1.07231 2.2827 1.07846 2.27799 1.08644C0.33337 4.08675 -0.199344 7.01331 0.0619876 9.90359C0.06317 9.91772 0.0708562 9.93125 0.0814988 9.93985C1.36451 10.9129 2.60732 11.5036 3.82705 11.8952C3.84657 11.9013 3.86725 11.894 3.87968 11.8773C4.1682 11.4704 4.4254 11.0414 4.64592 10.5902C4.65894 10.5638 4.64651 10.5324 4.61992 10.522C4.21196 10.3621 3.8235 10.1673 3.44983 9.946C3.42027 9.92818 3.41791 9.88452 3.4451 9.86362C3.52373 9.80276 3.60239 9.73945 3.67747 9.67552C3.69106 9.66385 3.70999 9.66138 3.72596 9.66876C6.1808 10.8262 8.83846 10.8262 11.2643 9.66876C11.2803 9.66077 11.2992 9.66324 11.3134 9.67491C11.3885 9.73884 11.4672 9.80276 11.5464 9.86362C11.5736 9.88452 11.5718 9.92818 11.5422 9.946C11.1686 10.1716 10.7801 10.3621 10.3716 10.5213C10.345 10.5318 10.3331 10.5638 10.3462 10.5902C10.5714 11.0407 10.8286 11.4698 11.1118 11.8767C11.1236 11.894 11.1449 11.9013 11.1644 11.8952C12.3901 11.5036 13.6329 10.9129 14.9159 9.93985C14.9271 9.93125 14.9342 9.91833 14.9354 9.9042C15.2482 6.56272 14.4116 3.66016 12.7176 1.08706C12.7135 1.07846 12.7064 1.07231 12.6981 1.06862ZM5.01251 8.14371C4.27344 8.14371 3.66446 7.44298 3.66446 6.5824C3.66446 5.72183 4.26163 5.02109 5.01251 5.02109C5.7693 5.02109 6.37238 5.72798 6.36055 6.5824C6.36055 7.44298 5.76338 8.14371 5.01251 8.14371ZM9.99672 8.14371C9.25766 8.14371 8.64868 7.44298 8.64868 6.5824C8.64868 5.72183 9.24583 5.02109 9.99672 5.02109C10.7535 5.02109 11.3566 5.72798 11.3448 6.5824C11.3448 7.44298 10.7535 8.14371 9.99672 8.14371Z" fill="white"/>
</g>
</g>
<defs>
<clipPath id="clip0_1254_3599">
<rect width="15" height="12" fill="white"/>
</clipPath>
</defs>
</svg>
