<svg width="9" height="10" viewBox="0 0 9 10" fill="none" xmlns="http://www.w3.org/2000/svg">
<path fill-rule="evenodd" clip-rule="evenodd" d="M7.09727 0.764625C7.22748 0.634448 7.43854 0.634448 7.56868 0.764625L8.90201 2.09796C9.03221 2.22813 9.03221 2.43919 8.90201 2.56936L6.27361 5.19778C6.22294 5.24845 6.16441 5.29061 6.10034 5.32266L3.48207 6.6318C3.35373 6.69599 3.19875 6.67079 3.09729 6.56936C2.99584 6.46791 2.97069 6.31292 3.03485 6.18459L4.344 3.56631C4.37604 3.50221 4.41821 3.44371 4.46887 3.39304L7.09727 0.764625ZM7.33301 1.47173L4.94028 3.86445L4.24812 5.24877L4.41788 5.41854L5.80221 4.72637L8.19494 2.33366L7.33301 1.47173ZM5.66633 1.33366L4.99966 2.00033H2.26634C1.98081 2.00033 1.78671 2.00059 1.63669 2.01284C1.49055 2.02478 1.41581 2.04643 1.36368 2.07299C1.23824 2.13691 1.13625 2.23889 1.07233 2.36433C1.04577 2.41647 1.02413 2.4912 1.01219 2.63734C0.999935 2.78737 0.999675 2.98147 0.999675 3.26699V7.40033C0.999675 7.68586 0.999935 7.87993 1.01219 8.02999C1.02413 8.17613 1.04577 8.25086 1.07233 8.30299C1.13625 8.42846 1.23824 8.53039 1.36368 8.59433C1.41581 8.62092 1.49055 8.64253 1.63669 8.65446C1.78671 8.66673 1.98081 8.66699 2.26634 8.66699H6.39967C6.68521 8.66699 6.87927 8.66673 7.02934 8.65446C7.17548 8.64253 7.25021 8.62092 7.30234 8.59433C7.42781 8.53039 7.52974 8.42846 7.59367 8.30299C7.62027 8.25086 7.64187 8.17613 7.65381 8.02999C7.66607 7.87993 7.66634 7.68586 7.66634 7.40033V4.66698L8.33301 4.00031V7.40033V7.41412C8.33301 7.68239 8.33301 7.90386 8.31827 8.08426C8.30294 8.27166 8.27014 8.44386 8.18767 8.60566C8.05987 8.85653 7.85587 9.06052 7.60501 9.18832C7.44321 9.27079 7.27101 9.30359 7.08361 9.31892C6.90321 9.33366 6.68174 9.33366 6.41347 9.33366H6.39967H2.26634H2.25257C1.98425 9.33366 1.76279 9.33366 1.5824 9.31892C1.39503 9.30359 1.2228 9.27079 1.06102 9.18832C0.810141 9.06052 0.606161 8.85653 0.478335 8.60566C0.395901 8.44386 0.363048 8.27166 0.347741 8.08426C0.333001 7.90386 0.333001 7.68239 0.333008 7.41412V7.40033V3.26699V3.25323C0.333001 2.98492 0.333001 2.76345 0.347741 2.58305C0.363048 2.39569 0.395901 2.22345 0.478335 2.06167C0.606161 1.81079 0.810141 1.60681 1.06102 1.47899C1.2228 1.39655 1.39503 1.3637 1.5824 1.34839C1.76279 1.33365 1.98424 1.33365 2.25255 1.33366H2.26634H5.66633Z" fill="white"/>
</svg>
