<svg width="9" height="10" viewBox="0 0 9 10" fill="none" xmlns="http://www.w3.org/2000/svg">
<g clip-path="url(#clip0_2080_110)">
<path fill-rule="evenodd" clip-rule="evenodd" d="M7.09825 0.764625C7.22845 0.634448 7.43952 0.634448 7.56965 0.764625L8.90298 2.09796C9.03319 2.22813 9.03319 2.43919 8.90298 2.56936L6.27458 5.19778C6.22392 5.24845 6.16538 5.29061 6.10132 5.32266L3.48304 6.6318C3.35471 6.69599 3.19972 6.67079 3.09827 6.56936C2.99682 6.46791 2.97166 6.31292 3.03583 6.18459L4.34497 3.56631C4.37702 3.50221 4.41919 3.44371 4.46985 3.39304L7.09825 0.764625ZM7.33398 1.47173L4.94126 3.86445L4.24909 5.24877L4.41886 5.41854L5.80318 4.72637L8.19592 2.33366L7.33398 1.47173ZM5.6673 1.33366L5.00064 2.00033H2.26732C1.98179 2.00033 1.78769 2.00059 1.63766 2.01284C1.49152 2.02478 1.41679 2.04643 1.36466 2.07299C1.23922 2.13691 1.13723 2.23889 1.07331 2.36433C1.04675 2.41647 1.02511 2.4912 1.01317 2.63734C1.00091 2.78737 1.00065 2.98147 1.00065 3.26699V7.40033C1.00065 7.68586 1.00091 7.87993 1.01317 8.02999C1.02511 8.17613 1.04675 8.25086 1.07331 8.30299C1.13723 8.42846 1.23922 8.53039 1.36466 8.59433C1.41679 8.62092 1.49152 8.64253 1.63766 8.65446C1.78769 8.66673 1.98179 8.66699 2.26732 8.66699H6.40065C6.68618 8.66699 6.88025 8.66673 7.03032 8.65446C7.17645 8.64253 7.25118 8.62092 7.30332 8.59433C7.42878 8.53039 7.53072 8.42846 7.59465 8.30299C7.62125 8.25086 7.64285 8.17613 7.65478 8.02999C7.66705 7.87993 7.66732 7.68586 7.66732 7.40033V4.66698L8.33398 4.00031V7.40033V7.41412C8.33398 7.68239 8.33398 7.90386 8.31925 8.08426C8.30392 8.27166 8.27112 8.44386 8.18865 8.60566C8.06085 8.85653 7.85685 9.06052 7.60598 9.18832C7.44418 9.27079 7.27198 9.30359 7.08458 9.31892C6.90418 9.33366 6.68272 9.33366 6.41445 9.33366H6.40065H2.26732H2.25354C1.98522 9.33366 1.76377 9.33366 1.58338 9.31892C1.39601 9.30359 1.22378 9.27079 1.062 9.18832C0.811118 9.06052 0.607138 8.85653 0.479311 8.60566C0.396878 8.44386 0.364025 8.27166 0.348718 8.08426C0.333978 7.90386 0.333978 7.68239 0.333985 7.41412V7.40033V3.26699V3.25323C0.333978 2.98492 0.333978 2.76345 0.348718 2.58305C0.364025 2.39569 0.396878 2.22345 0.479311 2.06167C0.607138 1.81079 0.811118 1.60681 1.062 1.47899C1.22378 1.39655 1.39601 1.3637 1.58338 1.34839C1.76377 1.33365 1.98522 1.33365 2.25353 1.33366H2.26732H5.6673Z" fill="black"/>
</g>
<defs>
<clipPath id="clip0_2080_110">
<rect width="9" height="10" fill="white"/>
</clipPath>
</defs>
</svg>
