<svg width="15" height="14" viewBox="0 0 15 14" fill="none" xmlns="http://www.w3.org/2000/svg">
<path fill-rule="evenodd" clip-rule="evenodd" d="M6.97936 1.25195L6.95844 1.30223L5.58656 4.60063C5.54336 4.7045 5.44567 4.77547 5.33354 4.78446L1.77264 5.06994L1.71835 5.07429L1.38681 5.10087L1.08602 5.12499C0.820024 5.14631 0.712167 5.47826 0.914828 5.65186L1.144 5.84817L1.3966 6.06455L1.43796 6.09998L4.15099 8.42398C4.23642 8.49716 4.27374 8.612 4.24763 8.72142L3.41876 12.1962L3.40612 12.2492L3.32895 12.5727L3.25893 12.8662C3.19702 13.1258 3.47939 13.331 3.70712 13.1919L3.96464 13.0346L4.24848 12.8612L4.29496 12.8328L7.34359 10.9707C7.43959 10.9121 7.56034 10.9121 7.65634 10.9707L10.7049 12.8328L10.7514 12.8612L11.0353 13.0346L11.2928 13.1919C11.5205 13.331 11.8029 13.1258 11.741 12.8662L11.6709 12.5727L11.5938 12.2492L11.5811 12.1962L10.7523 8.72142C10.7262 8.612 10.7635 8.49716 10.8489 8.42398L13.5619 6.09998L13.6033 6.06455L13.8559 5.84817L14.0851 5.65186C14.2877 5.47826 14.1799 5.14631 13.9139 5.12499L13.6131 5.10087L13.2815 5.07429L13.2273 5.06994L9.66639 4.78446C9.55426 4.77547 9.45657 4.7045 9.41337 4.60063L8.04149 1.30223L8.02058 1.25195L7.89285 0.944853L7.77696 0.666236C7.67448 0.419848 7.32545 0.419848 7.22297 0.666236L7.10709 0.944853L6.97936 1.25195ZM7.49997 2.60421L6.50988 4.98466C6.32267 5.43477 5.89938 5.74231 5.41345 5.78127L2.84355 5.98729L4.80154 7.66452C5.17177 7.98166 5.33345 8.47927 5.22034 8.95345L4.62215 11.4612L6.82234 10.1173C7.23836 9.86326 7.76158 9.86326 8.1776 10.1173L10.3777 11.4612L9.77959 8.95345C9.66648 8.47927 9.82816 7.98166 10.1983 7.66452L12.1563 5.98729L9.58648 5.78127C9.10055 5.74231 8.67726 5.43477 8.49005 4.98466L7.49997 2.60421Z" fill="black"/>
</svg>
