<svg width="9" height="10" viewBox="0 0 9 10" fill="none" xmlns="http://www.w3.org/2000/svg">
<path fill-rule="evenodd" clip-rule="evenodd" d="M2.25 2.66603C2.69835 2.41902 3 1.95734 3 1.42857C3 0.639593 2.32843 0 1.5 0C0.671572 0 0 0.639593 0 1.42857C0 1.95734 0.30165 2.41902 0.75 2.66603V2.81318C0.75 4.00636 1.60266 5.04643 2.8181 5.33581C3.36578 5.46621 3.75 5.93488 3.75 6.47257V7.334C3.30165 7.581 3 8.04264 3 8.57143C3 9.36043 3.67157 10 4.5 10C5.32843 10 6 9.36043 6 8.57143C6 8.04264 5.69835 7.581 5.25 7.334V6.47257C5.25 5.93488 5.63422 5.46621 6.18188 5.33581C7.39733 5.04643 8.25 4.00636 8.25 2.81318V2.66603C8.69835 2.41902 9 1.95734 9 1.42857C9 0.639593 8.32845 0 7.5 0C6.67155 0 6 0.639593 6 1.42857C6 1.95734 6.30165 2.41902 6.75 2.66603V2.81318C6.75 3.35084 6.36577 3.8195 5.81809 3.9499C5.30025 4.07319 4.84826 4.33276 4.5 4.68238C4.15174 4.33276 3.69975 4.07319 3.1819 3.9499C2.63422 3.8195 2.25 3.35084 2.25 2.81318V2.66603Z" fill="black"/>
</svg>
