<svg width="20" height="19" viewBox="0 0 20 19" fill="none" xmlns="http://www.w3.org/2000/svg">
<path fill-rule="evenodd" clip-rule="evenodd" d="M9.66577 0.0722656C4.32847 0.0722656 0 4.40017 0 9.73925C0 14.0096 2.76953 17.6331 6.6108 18.9119C7.09445 19.0003 7.27069 18.7019 7.27069 18.4455C7.27069 18.2157 7.26239 17.6081 7.25764 16.8016C4.56881 17.3856 4.00149 15.5056 4.00149 15.5056C3.56176 14.3888 2.92799 14.0915 2.92799 14.0915C2.05031 13.4921 2.99445 13.504 2.99445 13.504C3.96471 13.5723 4.47505 14.5004 4.47505 14.5004C5.33731 15.9773 6.7378 15.5507 7.28851 15.3032C7.37633 14.6789 7.62616 14.2528 7.90211 14.0113C5.75567 13.7668 3.49887 12.9378 3.49887 9.23365C3.49887 8.17793 3.87569 7.31569 4.49404 6.63977C4.39435 6.39528 4.06263 5.41255 4.58899 4.08148C4.58899 4.08148 5.4002 3.82155 7.24696 5.07191C8.01783 4.85768 8.84507 4.75087 9.66696 4.74671C10.4883 4.75087 11.3149 4.85768 12.087 5.07191C13.9325 3.82155 14.7425 4.08148 14.7425 4.08148C15.2701 5.41255 14.9384 6.39528 14.8393 6.63977C15.4588 7.31569 15.8327 8.17793 15.8327 9.23365C15.8327 12.9473 13.5723 13.7645 11.4194 14.0036C11.7659 14.3021 12.0751 14.892 12.0751 15.794C12.0751 17.0859 12.0632 18.1285 12.0632 18.4455C12.0632 18.7041 12.2377 19.0051 12.7279 18.9107C16.5661 17.6295 19.3333 14.0089 19.3333 9.73925C19.3333 4.40017 15.0048 0.0722656 9.66577 0.0722656Z" fill="black" fill-opacity="0.3"/>
</svg>
