<svg width="15" height="15" viewBox="0 0 15 15" fill="none" xmlns="http://www.w3.org/2000/svg">
<path fill-rule="evenodd" clip-rule="evenodd" d="M7.07963 0.223047C7.31312 -0.00664049 7.68767 -0.00664049 7.92116 0.223047L14.6712 6.86306C14.9074 7.09544 14.9105 7.47532 14.6782 7.71155C14.4458 7.94779 14.0659 7.95091 13.8297 7.71852L13.0004 6.9028V12.5008C13.0004 12.7769 12.7766 13.0008 12.5004 13.0008H2.50039C2.22425 13.0008 2.00039 12.7769 2.00039 12.5008V6.9028L1.17116 7.71852C0.934924 7.95091 0.555038 7.94779 0.322656 7.71155C0.0902741 7.47532 0.0933945 7.09544 0.329626 6.86306L7.07963 0.223047ZM7.50039 1.49242L12.0004 5.9191V12.0008H10.0004V8.50078C10.0004 8.22464 9.77654 8.00078 9.50039 8.00078H6.50039C6.22425 8.00078 6.00039 8.22464 6.00039 8.50078V12.0008H3.00039V5.9191L7.50039 1.49242ZM7.00039 12.0008H9.00039V9.00078H7.00039V12.0008Z" fill="black" fill-opacity="0.5"/>
</svg>
