<svg width="17" height="19" viewBox="0 0 17 19" fill="none" xmlns="http://www.w3.org/2000/svg">
<path fill-rule="evenodd" clip-rule="evenodd" d="M9.78129 3.80593C10.638 3.22394 11.7213 3.21254 12.526 3.74105C12.7088 3.86106 12.9038 4.05153 13.4256 4.57325C13.9473 5.09497 14.1378 5.29012 14.2578 5.47287C14.7864 6.27763 14.775 7.36085 14.1929 8.21756C14.06 8.41309 13.8545 8.62269 13.3136 9.16355L12.5299 9.94726C12.2827 10.1946 12.2827 10.5956 12.5299 10.8429C12.7773 11.0903 13.1783 11.0903 13.4256 10.8429L14.2093 10.0592L14.2637 10.0048C14.7319 9.53678 15.0315 9.23726 15.2407 8.92933C16.096 7.6703 16.1402 6.03161 15.3166 4.77756C15.1157 4.47171 14.823 4.17909 14.3779 3.73411L14.3212 3.67758L14.2647 3.62101C13.8198 3.17588 13.5272 2.88314 13.2213 2.68229C11.9673 1.85871 10.3285 1.90287 9.06952 2.75816C8.76159 2.96734 8.46206 3.26697 7.99398 3.73518L7.93964 3.78954L7.15593 4.57325C6.90858 4.82058 6.90858 5.22159 7.15593 5.46891C7.40325 5.71624 7.80426 5.71624 8.05159 5.46891L8.8353 4.6852C9.37616 4.14434 9.58576 3.93876 9.78129 3.80593ZM4.46892 9.05159C4.71625 8.80426 4.71625 8.40325 4.46892 8.15592C4.22158 7.90859 3.82058 7.90859 3.57325 8.15592L2.78954 8.93963L2.73518 8.99398C2.26696 9.46206 1.96734 9.76158 1.75815 10.0695C0.902861 11.3286 0.858718 12.9672 1.68229 14.2213C1.88315 14.5271 2.17587 14.8197 2.62103 15.2647L2.67757 15.3213L2.73411 15.3778C3.17909 15.8229 3.4717 16.1158 3.77755 16.3165C5.03161 17.1401 6.6703 17.096 7.92933 16.2407C8.23725 16.0315 8.53678 15.7318 9.00485 15.2637L9.05922 15.2093L9.84293 14.4257C10.0903 14.1783 10.0903 13.7772 9.84293 13.53C9.59559 13.2826 9.19459 13.2826 8.94726 13.53L8.16355 14.3137C7.62268 14.8545 7.41308 15.0601 7.21756 15.1929C6.36084 15.7749 5.27764 15.7863 4.47286 15.2579C4.29013 15.1378 4.09497 14.9473 3.57325 14.4257C3.05152 13.9039 2.86106 13.7087 2.74105 13.5259C2.21254 12.7212 2.22394 11.638 2.80593 10.7813C2.93875 10.5858 3.14434 10.3762 3.68521 9.8353L4.46892 9.05159ZM11.187 7.70748C11.4343 7.46015 11.4343 7.05914 11.187 6.81181C10.9397 6.56448 10.5387 6.56448 10.2913 6.81181L5.81301 11.2902C5.56568 11.5375 5.56568 11.9385 5.81301 12.1858C6.06033 12.4331 6.46134 12.4331 6.70868 12.1858L11.187 7.70748Z" fill="black" fill-opacity="0.3"/>
</svg>
