<svg width="19" height="19" viewBox="0 0 19 19" fill="none" xmlns="http://www.w3.org/2000/svg">
<path d="M16.1889 16.1893H13.3737V11.7804C13.3737 10.7291 13.3549 9.37566 11.9095 9.37566C10.4432 9.37566 10.2189 10.5211 10.2189 11.7039V16.189H7.40369V7.12254H10.1063V8.36157H10.1441C10.4146 7.89911 10.8054 7.51867 11.275 7.26076C11.7446 7.00286 12.2753 6.87715 12.8107 6.89702C15.664 6.89702 16.1901 8.77389 16.1901 11.2156L16.1889 16.1893ZM4.2272 5.88322C3.90409 5.88328 3.5882 5.78752 3.31951 5.60805C3.05082 5.42858 2.84139 5.17346 2.71769 4.87495C2.59398 4.57644 2.56156 4.24795 2.62454 3.93103C2.68752 3.6141 2.84307 3.32296 3.07151 3.09444C3.29994 2.86591 3.59102 2.71026 3.90791 2.64716C4.22481 2.58407 4.55329 2.61636 4.85183 2.73996C5.15037 2.86356 5.40556 3.07292 5.58512 3.34156C5.76468 3.61019 5.86055 3.92605 5.86061 4.24917C5.86065 4.46372 5.81843 4.67618 5.73636 4.87441C5.6543 5.07264 5.534 5.25276 5.38233 5.4045C5.23065 5.55623 5.05056 5.67661 4.85237 5.75875C4.65417 5.84089 4.44174 5.88318 4.2272 5.88322ZM5.6348 16.1893H2.81667V7.12254H5.6348V16.1893ZM17.5924 0.0012945H1.40203C1.03456 -0.0028526 0.680452 0.139067 0.417557 0.395867C0.154662 0.652667 0.00448484 1.00334 0 1.37082V17.6289C0.00433134 17.9966 0.15442 18.3475 0.417306 18.6045C0.680192 18.8616 1.03438 19.0038 1.40203 18.9999H17.5924C17.9608 19.0045 18.316 18.8627 18.5799 18.6057C18.8438 18.3486 18.9949 17.9973 19 17.6289V1.36965C18.9947 1.00144 18.8435 0.650366 18.5796 0.393572C18.3157 0.136779 17.9606 -0.0047353 17.5924 0.000120984" fill="black" fill-opacity="0.3"/>
</svg>
