<svg width="170" height="25" viewBox="0 0 170 25" fill="none" xmlns="http://www.w3.org/2000/svg">
<path d="M6.6355 19.5021C2.65079 19.5021 0.623779 16.5282 0.623779 13.0326C0.623779 9.5369 2.65079 6.56299 6.6355 6.56299C10.6029 6.56299 12.6299 9.5369 12.6299 13.0326C12.6299 16.5282 10.6029 19.5021 6.6355 19.5021ZM2.42556 13.0326C2.42556 15.6934 3.74225 17.9021 6.6355 17.9021C9.52875 17.9021 10.8281 15.6934 10.8281 13.0326C10.8281 10.3717 9.52875 8.16299 6.6355 8.16299C3.74225 8.16299 2.42556 10.3717 2.42556 13.0326ZM13.594 10.2499H15.1532V11.6239C15.7769 10.6326 16.7991 10.0412 18.1678 10.0412C20.8531 10.0412 22.3257 12.0586 22.3257 14.7717C22.3257 17.4847 20.8531 19.5021 18.1678 19.5021C16.8337 19.5021 15.8635 18.9456 15.2225 18.0239V22.7717H13.594V10.2499ZM15.2052 14.7717C15.2052 16.6847 16.0888 18.0586 17.9079 18.0586C19.7443 18.0586 20.6279 16.6847 20.6279 14.7717C20.6279 12.8586 19.7443 11.4847 17.9079 11.4847C16.0888 11.4847 15.2052 12.8586 15.2052 14.7717ZM27.6725 19.5021C25.0563 19.5021 23.3931 17.4847 23.3931 14.7717C23.3931 12.0586 25.0563 10.0412 27.6725 10.0412C30.2712 10.0412 31.9344 12.0412 31.9344 14.8065V15.3282H25.1082C25.2642 16.963 26.1477 18.076 27.6725 18.076C28.8159 18.076 29.6821 17.5021 30.0979 16.5456H31.7611C31.1894 18.3369 29.6821 19.5021 27.6725 19.5021ZM25.1256 13.9543H30.2192C29.9767 12.4586 29.1104 11.4673 27.6725 11.4673C26.217 11.4673 25.3508 12.4586 25.1256 13.9543ZM38.9577 13.5717C38.9577 12.3717 38.3513 11.5021 37 11.5021C36.3243 11.5021 34.5572 11.8499 34.5572 14.2499V19.2934H32.9286V10.2499H34.4879V11.5543C35.0943 10.7021 36.0471 10.0412 37.3811 10.0412C39.616 10.0412 40.5865 11.676 40.5865 13.4152V19.2934H38.9577V13.5717ZM47.3521 19.5021C44.4762 19.5021 42.2413 18.163 42.1547 15.0847H43.9045C43.9911 17.2934 45.585 17.9717 47.3694 17.9717C49.0846 17.9717 50.2973 17.2586 50.2973 15.8326C50.2973 14.7543 49.7083 14.2152 46.8843 13.6239C44.0257 13.0326 42.5531 12.1456 42.5531 9.86734C42.5531 7.84994 44.3896 6.56299 46.8843 6.56299C50.3493 6.56299 51.77 8.40647 51.8219 10.6847H50.0894C49.9855 8.98038 49.0499 8.09342 46.8843 8.09342C45.3424 8.09342 44.3376 8.77168 44.3376 9.84994C44.3376 10.963 44.7187 11.5195 47.5427 12.0934C51.1982 12.8412 52.0818 13.9717 52.0818 15.8152C52.0818 18.076 50.1761 19.5021 47.3521 19.5021ZM57.4154 19.5021C54.6608 19.5021 52.9976 17.4847 52.9976 14.7717C52.9976 12.0586 54.6608 10.0412 57.4154 10.0412C60.1701 10.0412 61.8332 12.0586 61.8332 14.7717C61.8332 17.4847 60.1701 19.5021 57.4154 19.5021ZM54.6954 14.7717C54.6954 16.6847 55.579 18.0586 57.4154 18.0586C59.2518 18.0586 60.1354 16.6847 60.1354 14.7717C60.1354 12.8586 59.2518 11.4847 57.4154 11.4847C55.579 11.4847 54.6954 12.8586 54.6954 14.7717ZM64.4325 15.9717C64.4325 17.1717 65.0389 18.0412 66.3902 18.0412C67.0659 18.0412 68.833 17.6934 68.833 15.2934V10.2499H70.4616V19.2934H68.9023V17.9891C68.296 18.8412 67.3431 19.5021 66.0091 19.5021C63.7742 19.5021 62.804 17.8673 62.804 16.1282V10.2499H64.4325V15.9717ZM71.8394 19.2934V10.2499H73.3987V11.8152C74.0917 10.5108 75.1138 10.1456 76.2399 10.1456H76.9329V11.7108H76.188C74.6634 11.7108 73.468 12.3543 73.468 14.5804V19.2934H71.8394ZM81.6428 19.5021C79.0614 19.5021 77.3983 17.4847 77.3983 14.7717C77.3983 12.0586 79.0614 10.0412 81.6428 10.0412C83.9297 10.0412 85.3157 11.3804 85.5929 13.3456H83.9124C83.6872 12.1978 82.8556 11.4847 81.6428 11.4847C79.9797 11.4847 79.0961 12.8586 79.0961 14.7717C79.0961 16.6847 79.9797 18.0586 81.6428 18.0586C82.8729 18.0586 83.7045 17.3108 83.9124 16.1282H85.5929C85.333 18.1282 83.7911 19.5021 81.6428 19.5021ZM90.6685 19.5021C88.0525 19.5021 86.3893 17.4847 86.3893 14.7717C86.3893 12.0586 88.0525 10.0412 90.6685 10.0412C93.2673 10.0412 94.9305 12.0412 94.9305 14.8065V15.3282H88.1045C88.2604 16.963 89.144 18.076 90.6685 18.076C91.812 18.076 92.6782 17.5021 93.094 16.5456H94.7572C94.1855 18.3369 92.6782 19.5021 90.6685 19.5021ZM88.1218 13.9543H93.2153C92.9727 12.4586 92.1065 11.4673 90.6685 11.4673C89.2133 11.4673 88.347 12.4586 88.1218 13.9543ZM102.841 19.2934V8.3369H98.6829V6.77168H108.766V8.3369H104.608V19.2934H102.841ZM112.06 19.5021C109.305 19.5021 107.642 17.4847 107.642 14.7717C107.642 12.0586 109.305 10.0412 112.06 10.0412C114.814 10.0412 116.477 12.0586 116.477 14.7717C116.477 17.4847 114.814 19.5021 112.06 19.5021ZM109.34 14.7717C109.34 16.6847 110.223 18.0586 112.06 18.0586C113.896 18.0586 114.78 16.6847 114.78 14.7717C114.78 12.8586 113.896 11.4847 112.06 11.4847C110.223 11.4847 109.34 12.8586 109.34 14.7717ZM121.433 22.9804C118.99 22.9804 117.673 21.8326 117.483 19.9543H119.094C119.285 21.1543 120.151 21.6065 121.45 21.6065C122.732 21.6065 124.118 21.1717 124.118 19.0499V18.0065C123.477 18.9108 122.507 19.4499 121.19 19.4499C118.505 19.4499 117.032 17.4326 117.032 14.7369C117.032 12.0412 118.505 10.0412 121.19 10.0412C122.559 10.0412 123.546 10.6152 124.188 11.5717V10.2499H125.764V19.0499C125.764 21.8152 123.858 22.9804 121.433 22.9804ZM118.73 14.7369C118.73 16.6499 119.614 18.0065 121.45 18.0065C123.269 18.0065 124.153 16.6499 124.153 14.7369C124.153 12.8412 123.269 11.4673 121.45 11.4673C119.614 11.4673 118.73 12.8412 118.73 14.7369ZM131.007 19.5021C128.391 19.5021 126.727 17.4847 126.727 14.7717C126.727 12.0586 128.391 10.0412 131.007 10.0412C133.606 10.0412 135.269 12.0412 135.269 14.8065V15.3282H128.443C128.599 16.963 129.482 18.076 131.007 18.076C132.15 18.076 133.016 17.5021 133.432 16.5456H135.096C134.524 18.3369 133.016 19.5021 131.007 19.5021ZM128.46 13.9543H133.553C133.311 12.4586 132.445 11.4673 131.007 11.4673C129.551 11.4673 128.685 12.4586 128.46 13.9543ZM137.164 7.46734H138.81V10.2499H141.201V11.6412H138.81V16.9804C138.81 17.6239 139.07 17.9021 139.728 17.9021H141.201V19.2934H139.382C137.823 19.2934 137.164 18.6673 137.164 17.1717V11.6412H135.518V10.2499H137.164V7.46734ZM142.363 19.2934V6.77168H143.991V11.4673C144.598 10.6499 145.533 10.0412 146.815 10.0412C149.05 10.0412 150.02 11.676 150.02 13.4152V19.2934H148.392V13.5717C148.392 12.3717 147.786 11.5021 146.434 11.5021C145.759 11.5021 143.991 11.8499 143.991 14.2499V19.2934H142.363ZM155.262 19.5021C152.646 19.5021 150.983 17.4847 150.983 14.7717C150.983 12.0586 152.646 10.0412 155.262 10.0412C157.86 10.0412 159.524 12.0412 159.524 14.8065V15.3282H152.698C152.854 16.963 153.737 18.076 155.262 18.076C156.405 18.076 157.271 17.5021 157.687 16.5456H159.35C158.779 18.3369 157.271 19.5021 155.262 19.5021ZM152.715 13.9543H157.809C157.566 12.4586 156.7 11.4673 155.262 11.4673C153.806 11.4673 152.94 12.4586 152.715 13.9543ZM160.518 19.2934V10.2499H162.077V11.8152C162.77 10.5108 163.793 10.1456 164.919 10.1456H165.612V11.7108H164.867C163.342 11.7108 162.147 12.3543 162.147 14.5804V19.2934H160.518Z" fill="black"/>
<path d="M167.611 7.78048V5.90222H168.099L168.599 7.36309L169.099 5.90222H169.593V7.78048H169.262V6.35874L168.748 7.78048H168.449L167.943 6.35874V7.78048H167.611ZM165.857 6.20874V5.90222H167.416V6.20874H166.812V7.78048H166.461V6.20874H165.857Z" fill="black"/>
</svg>
