<svg width="10" height="10" viewBox="0 0 10 10" fill="none" xmlns="http://www.w3.org/2000/svg">
<path fill-rule="evenodd" clip-rule="evenodd" d="M8.09727 0.764137C8.22748 0.63396 8.43854 0.63396 8.56868 0.764137L9.90201 2.09747C10.0322 2.22764 10.0322 2.4387 9.90201 2.56887L7.27361 5.19729C7.22294 5.24796 7.16441 5.29012 7.10034 5.32217L4.48207 6.63131C4.35373 6.6955 4.19875 6.6703 4.09729 6.56887C3.99584 6.46742 3.97069 6.31243 4.03485 6.1841L5.344 3.56582C5.37604 3.50172 5.41821 3.44322 5.46887 3.39255L8.09727 0.764137ZM8.33301 1.47124L5.94028 3.86396L5.24812 5.24828L5.41788 5.41805L6.80221 4.72588L9.19494 2.33317L8.33301 1.47124ZM6.66633 1.33317L5.99966 1.99984H3.26634C2.98081 1.99984 2.78671 2.0001 2.63669 2.01235C2.49055 2.02429 2.41581 2.04594 2.36368 2.0725C2.23824 2.13642 2.13625 2.2384 2.07233 2.36384C2.04577 2.41598 2.02413 2.49071 2.01219 2.63685C1.99993 2.78688 1.99967 2.98098 1.99967 3.2665V7.39984C1.99967 7.68537 1.99993 7.87944 2.01219 8.0295C2.02413 8.17564 2.04577 8.25037 2.07233 8.3025C2.13625 8.42797 2.23824 8.5299 2.36368 8.59384C2.41581 8.62044 2.49055 8.64204 2.63669 8.65397C2.78671 8.66624 2.98081 8.6665 3.26634 8.6665H7.39967C7.68521 8.6665 7.87927 8.66624 8.02934 8.65397C8.17548 8.64204 8.25021 8.62044 8.30234 8.59384C8.42781 8.5299 8.52974 8.42797 8.59367 8.3025C8.62027 8.25037 8.64187 8.17564 8.65381 8.0295C8.66607 7.87944 8.66634 7.68537 8.66634 7.39984V4.66649L9.33301 3.99982V7.39984V7.41364C9.33301 7.6819 9.33301 7.90337 9.31827 8.08377C9.30294 8.27117 9.27014 8.44337 9.18767 8.60517C9.05987 8.85604 8.85587 9.06004 8.60501 9.18784C8.44321 9.2703 8.27101 9.3031 8.08361 9.31844C7.90321 9.33317 7.68174 9.33317 7.41347 9.33317H7.39967H3.26634H3.25257C2.98425 9.33317 2.76279 9.33317 2.5824 9.31844C2.39503 9.3031 2.2228 9.2703 2.06102 9.18784C1.81014 9.06004 1.60616 8.85604 1.47833 8.60517C1.3959 8.44337 1.36305 8.27117 1.34774 8.08377C1.333 7.90337 1.333 7.6819 1.33301 7.41364V7.39984V3.2665V3.25274C1.333 2.98443 1.333 2.76296 1.34774 2.58256C1.36305 2.3952 1.3959 2.22296 1.47833 2.06118C1.60616 1.8103 1.81014 1.60632 2.06102 1.4785C2.2228 1.39606 2.39503 1.36321 2.5824 1.3479C2.76279 1.33316 2.98424 1.33316 3.25255 1.33317H3.26634H6.66633Z" fill="black" fill-opacity="0.5"/>
</svg>
