<svg width="11" height="11" viewBox="0 0 11 11" fill="none" xmlns="http://www.w3.org/2000/svg">
<path d="M10.3125 9.625C10.3125 9.625 11 9.625 11 8.9375C11 8.25 10.3125 6.1875 7.5625 6.1875C4.8125 6.1875 4.125 8.25 4.125 8.9375C4.125 9.625 4.8125 9.625 4.8125 9.625H10.3125ZM4.82762 8.9375L4.8125 8.93475C4.81319 8.75325 4.92731 8.22662 5.335 7.75225C5.7145 7.30744 6.38137 6.875 7.5625 6.875C8.74294 6.875 9.40981 7.30812 9.79 7.75225C10.1977 8.22662 10.3111 8.75394 10.3125 8.93475L10.307 8.93612L10.2974 8.9375H4.82762ZM7.5625 4.8125C7.92717 4.8125 8.27691 4.66763 8.53477 4.40977C8.79263 4.15191 8.9375 3.80217 8.9375 3.4375C8.9375 3.07283 8.79263 2.72309 8.53477 2.46523C8.27691 2.20737 7.92717 2.0625 7.5625 2.0625C7.19783 2.0625 6.84809 2.20737 6.59023 2.46523C6.33237 2.72309 6.1875 3.07283 6.1875 3.4375C6.1875 3.80217 6.33237 4.15191 6.59023 4.40977C6.84809 4.66763 7.19783 4.8125 7.5625 4.8125ZM9.625 3.4375C9.625 3.70835 9.57165 3.97655 9.468 4.22678C9.36435 4.47702 9.21243 4.70439 9.02091 4.89591C8.82939 5.08743 8.60202 5.23935 8.35178 5.343C8.10155 5.44665 7.83335 5.5 7.5625 5.5C7.29165 5.5 7.02345 5.44665 6.77322 5.343C6.52298 5.23935 6.29561 5.08743 6.10409 4.89591C5.91257 4.70439 5.76065 4.47702 5.657 4.22678C5.55335 3.97655 5.5 3.70835 5.5 3.4375C5.5 2.89049 5.7173 2.36589 6.10409 1.97909C6.49089 1.5923 7.01549 1.375 7.5625 1.375C8.10951 1.375 8.63411 1.5923 9.02091 1.97909C9.4077 2.36589 9.625 2.89049 9.625 3.4375ZM4.7685 6.38C4.49333 6.294 4.20991 6.23709 3.92287 6.21019C3.76157 6.19446 3.59957 6.18688 3.4375 6.1875C0.6875 6.1875 0 8.25 0 8.9375C0 9.39583 0.229167 9.625 0.6875 9.625H3.586C3.48413 9.41036 3.4333 9.17505 3.4375 8.9375C3.4375 8.24312 3.69669 7.53362 4.18688 6.941C4.35394 6.73887 4.5485 6.54981 4.7685 6.38ZM3.3825 6.875C2.97586 7.48649 2.75608 8.20317 2.75 8.9375H0.6875C0.6875 8.75875 0.80025 8.22937 1.21 7.75225C1.58469 7.315 2.23575 6.88875 3.3825 6.87569V6.875ZM1.03125 3.78125C1.03125 3.23424 1.24855 2.70964 1.63534 2.32284C2.02214 1.93605 2.54674 1.71875 3.09375 1.71875C3.64076 1.71875 4.16536 1.93605 4.55216 2.32284C4.93895 2.70964 5.15625 3.23424 5.15625 3.78125C5.15625 4.32826 4.93895 4.85286 4.55216 5.23966C4.16536 5.62645 3.64076 5.84375 3.09375 5.84375C2.54674 5.84375 2.02214 5.62645 1.63534 5.23966C1.24855 4.85286 1.03125 4.32826 1.03125 3.78125ZM3.09375 2.40625C2.72908 2.40625 2.37934 2.55112 2.12148 2.80898C1.86362 3.06684 1.71875 3.41658 1.71875 3.78125C1.71875 4.14592 1.86362 4.49566 2.12148 4.75352C2.37934 5.01138 2.72908 5.15625 3.09375 5.15625C3.45842 5.15625 3.80816 5.01138 4.06602 4.75352C4.32388 4.49566 4.46875 4.14592 4.46875 3.78125C4.46875 3.41658 4.32388 3.06684 4.06602 2.80898C3.80816 2.55112 3.45842 2.40625 3.09375 2.40625Z" fill="black"/>
</svg>
