<svg width="10" height="8" viewBox="0 0 10 8" fill="none" xmlns="http://www.w3.org/2000/svg">
<path d="M5.00076 3.5C5.39858 3.5 5.78011 3.34196 6.06142 3.06066C6.34272 2.77936 6.50076 2.39782 6.50076 2C6.50076 1.60218 6.34272 1.22064 6.06142 0.93934C5.78011 0.658035 5.39858 0.5 5.00076 0.5C4.60293 0.5 4.2214 0.658035 3.9401 0.93934C3.65879 1.22064 3.50076 1.60218 3.50076 2C3.50076 2.39782 3.65879 2.77936 3.9401 3.06066C4.2214 3.34196 4.60293 3.5 5.00076 3.5ZM3.00076 3C3.00076 3.26522 2.8954 3.51957 2.70786 3.70711C2.52033 3.89464 2.26597 4 2.00076 4C1.73554 4 1.48119 3.89464 1.29365 3.70711C1.10611 3.51957 1.00076 3.26522 1.00076 3C1.00076 2.73478 1.10611 2.48043 1.29365 2.29289C1.48119 2.10536 1.73554 2 2.00076 2C2.26597 2 2.52033 2.10536 2.70786 2.29289C2.8954 2.48043 3.00076 2.73478 3.00076 3ZM0.745758 6.663C0.660401 6.61449 0.59648 6.53557 0.566758 6.442C0.478661 6.15666 0.477737 5.85153 0.564105 5.56566C0.650472 5.2798 0.820201 5.02622 1.05155 4.8374C1.28291 4.64858 1.56536 4.53311 1.86273 4.50578C2.1601 4.47845 2.45887 4.54051 2.72076 4.684C2.18257 5.21288 1.84572 5.91293 1.76826 6.6635C1.75676 6.7745 1.76126 6.8845 1.78076 6.9905C1.41584 6.95895 1.06241 6.84711 0.745758 6.663ZM8.22076 6.99C8.58564 6.9586 8.93907 6.84694 9.25576 6.663C9.34093 6.61439 9.40466 6.53549 9.43426 6.442C9.5225 6.15663 9.52353 5.85142 9.43722 5.56546C9.35091 5.27951 9.18119 5.02583 8.94981 4.83693C8.71843 4.64803 8.43592 4.53251 8.13847 4.50518C7.84103 4.47785 7.54219 4.53994 7.28026 4.6835C7.81891 5.21236 8.15613 5.91262 8.23376 6.6635C8.2449 6.77257 8.24052 6.88266 8.22076 6.9905V6.99ZM9.00076 3C9.00076 3.26522 8.8954 3.51957 8.70786 3.70711C8.52033 3.89464 8.26597 4 8.00076 4C7.73554 4 7.48119 3.89464 7.29365 3.70711C7.10611 3.51957 7.00076 3.26522 7.00076 3C7.00076 2.73478 7.10611 2.48043 7.29365 2.29289C7.48119 2.10536 7.73554 2 8.00076 2C8.26597 2 8.52033 2.10536 8.70786 2.29289C8.8954 2.48043 9.00076 2.73478 9.00076 3ZM2.65276 7.095C2.60345 7.05084 2.56522 6.99569 2.54116 6.93402C2.5171 6.87235 2.50788 6.80589 2.51426 6.74C2.57786 6.12474 2.86728 5.5549 3.32659 5.14062C3.78589 4.72635 4.38247 4.49705 5.00101 4.49705C5.61954 4.49705 6.21612 4.72635 6.67543 5.14062C7.13474 5.5549 7.42416 6.12474 7.48776 6.74C7.49417 6.80589 7.48498 6.87237 7.46092 6.93404C7.43685 6.99572 7.3986 7.05086 7.34926 7.095C6.70636 7.67847 5.86895 8.00117 5.00076 8C4.13273 8.0011 3.2955 7.6784 2.65276 7.095Z" fill="black"/>
</svg>
