<svg width="17" height="17" viewBox="0 0 17 17" fill="none" xmlns="http://www.w3.org/2000/svg">
<path fill-rule="evenodd" clip-rule="evenodd" d="M11.7057 1.28755C11.4843 1.06626 11.1255 1.06626 10.9042 1.28755C10.6829 1.50885 10.6829 1.86765 10.9042 2.08895L11.6444 2.82902L6.14908 6.95045L4.89382 5.69519C4.67253 5.47389 4.31373 5.47389 4.09244 5.69519C3.87115 5.91648 3.87115 6.27528 4.09244 6.49657L5.69521 8.09935L6.89729 9.30143L3.19087 13.0078C2.96958 13.2292 2.96958 13.588 3.19087 13.8092C3.41218 14.0306 3.77097 14.0306 3.99226 13.8092L7.69868 10.1028L8.90077 11.3049L10.5035 12.9077C10.7248 13.129 11.0836 13.129 11.3049 12.9077C11.5263 12.6864 11.5263 12.3276 11.3049 12.1063L10.0497 10.851L14.1711 5.3558L14.9112 6.09588C15.1325 6.31717 15.4912 6.31717 15.7126 6.09588C15.9339 5.87458 15.9339 5.51579 15.7126 5.29449L14.5104 4.09241L12.9077 2.48964L11.7057 1.28755ZM6.95861 7.75996L12.4539 3.63854L13.3616 4.54628L9.24015 10.0415L6.95861 7.75996Z" fill="black"/>
</svg>
