<svg width="25" height="25" viewBox="0 0 25 25" fill="none" xmlns="http://www.w3.org/2000/svg">
<path fill-rule="evenodd" clip-rule="evenodd" d="M16.6654 10.8333C16.6654 14.0549 14.0537 16.6666 10.832 16.6666C7.61036 16.6666 4.9987 14.0549 4.9987 10.8333C4.9987 7.61159 7.61036 4.99992 10.832 4.99992C14.0537 4.99992 16.6654 7.61159 16.6654 10.8333ZM15.5134 16.6931C14.2304 17.7196 12.6029 18.3333 10.832 18.3333C6.6899 18.3333 3.33203 14.9754 3.33203 10.8333C3.33203 6.69112 6.6899 3.33325 10.832 3.33325C14.9742 3.33325 18.332 6.69112 18.332 10.8333C18.332 12.6041 17.7184 14.2316 16.6919 15.5147L21.4214 20.2439C21.7467 20.5694 21.7467 21.0971 21.4214 21.4226C21.0959 21.7479 20.5682 21.7479 20.2427 21.4226L15.5134 16.6931Z" fill="black" fill-opacity="0.05"/>
</svg>
