<svg width="10" height="10" viewBox="0 0 10 10" fill="none" xmlns="http://www.w3.org/2000/svg">
<path fill-rule="evenodd" clip-rule="evenodd" d="M4.61093 0.604065L4.59529 0.643483L3.57003 3.22937C3.53775 3.3108 3.46474 3.36644 3.38094 3.37349L0.719739 3.5973L0.679166 3.60071L0.431393 3.62155L0.206601 3.64046C0.0078126 3.65717 -0.0727932 3.91741 0.0786634 4.05351L0.249932 4.20742L0.43871 4.37705L0.46962 4.40483L2.49717 6.2268C2.56102 6.28417 2.58891 6.37421 2.5694 6.45999L1.94995 9.18418L1.9405 9.22573L1.88283 9.47935L1.8305 9.70945C1.78424 9.91297 1.99526 10.0738 2.16545 9.96479L2.35791 9.84147L2.57003 9.70553L2.60477 9.68327L4.88313 8.22341C4.95488 8.17747 5.04512 8.17747 5.11686 8.22341L7.3952 9.68327L7.42995 9.70553L7.64212 9.84147L7.83456 9.96479C8.00473 10.0738 8.21578 9.91297 8.16952 9.70945L8.11713 9.47935L8.05951 9.22573L8.05002 9.18418L7.43062 6.45999C7.41112 6.37421 7.43899 6.28417 7.50282 6.2268L9.53035 4.40483L9.56129 4.37705L9.75007 4.20742L9.92136 4.05351C10.0728 3.91741 9.9922 3.65717 9.79341 3.64046L9.56861 3.62155L9.3208 3.60071L9.28029 3.5973L6.61905 3.37349C6.53525 3.36644 6.46224 3.3108 6.42996 3.22937L5.4047 0.643483L5.38907 0.604065L5.29361 0.363303L5.20701 0.144873C5.13042 -0.0482909 4.86957 -0.0482909 4.79299 0.144873L4.70639 0.363303L4.61093 0.604065ZM5 1.66421L4.26007 3.53044C4.12016 3.88332 3.80382 4.12442 3.44066 4.15497L1.52007 4.31648L2.98336 5.6314C3.26004 5.88003 3.38087 6.27015 3.29634 6.6419L2.84929 8.60796L4.49358 7.55436C4.80449 7.35517 5.19551 7.35517 5.50642 7.55436L7.15067 8.60796L6.70365 6.6419C6.61912 6.27015 6.73995 5.88003 7.0166 5.6314L8.47989 4.31648L6.55933 4.15497C6.19618 4.12442 5.87984 3.88332 5.73993 3.53044L5 1.66421Z" fill="black"/>
<path d="M5 1.66421L4.26007 3.53044C4.12016 3.88332 3.80382 4.12442 3.44066 4.15497L1.52007 4.31648L2.98336 5.6314C3.26004 5.88003 3.38087 6.27015 3.29634 6.6419L2.84929 8.60796L4.49358 7.55436C4.80449 7.35517 5.19551 7.35517 5.50642 7.55436L7.15067 8.60796L6.70365 6.6419C6.61912 6.27015 6.73995 5.88003 7.0166 5.6314L8.47989 4.31648L6.55933 4.15497C6.19618 4.12442 5.87984 3.88332 5.73993 3.53044L5 1.66421Z" fill="black"/>
</svg>
