<svg width="16" height="16" viewBox="0 0 16 16" fill="none" xmlns="http://www.w3.org/2000/svg">
<g clip-path="url(#clip0_2514_550)">
<path fill-rule="evenodd" clip-rule="evenodd" d="M7.47936 1.75147L7.45844 1.80175L6.08656 5.10015C6.04336 5.20402 5.94567 5.27499 5.83354 5.28398L2.27264 5.56946L2.21835 5.57381L1.88681 5.60039L1.58602 5.62451C1.32002 5.64583 1.21217 5.97778 1.41483 6.15138L1.644 6.34769L1.8966 6.56407L1.93796 6.5995L4.65099 8.9235C4.73642 8.99668 4.77374 9.11152 4.74763 9.22094L3.91876 12.6958L3.90612 12.7488L3.82895 13.0723L3.75893 13.3658C3.69702 13.6254 3.97939 13.8306 4.20712 13.6915L4.46464 13.5342L4.74848 13.3608L4.79496 13.3324L7.84359 11.4703C7.93959 11.4117 8.06034 11.4117 8.15634 11.4703L11.2049 13.3324L11.2514 13.3608L11.5353 13.5342L11.7928 13.6915C12.0205 13.8306 12.3029 13.6254 12.241 13.3658L12.1709 13.0723L12.0938 12.7488L12.0811 12.6958L11.2523 9.22094C11.2262 9.11152 11.2635 8.99668 11.3489 8.9235L14.0619 6.5995L14.1033 6.56407L14.3559 6.34769L14.5851 6.15138C14.7877 5.97778 14.6799 5.64583 14.4139 5.62451L14.1131 5.60039L13.7815 5.57381L13.7273 5.56946L10.1664 5.28398C10.0543 5.27499 9.95657 5.20402 9.91337 5.10015L8.54149 1.80175L8.52058 1.75147L8.39285 1.44436L8.27696 1.16575C8.17448 0.91936 7.82545 0.91936 7.72297 1.16575L7.60709 1.44436L7.47936 1.75147ZM7.99997 3.10373L7.00988 5.48418C6.82267 5.93429 6.39938 6.24183 5.91345 6.28079L3.34355 6.48681L5.30154 8.16404C5.67177 8.48118 5.83345 8.97879 5.72034 9.45297L5.12215 11.9608L7.32234 10.6169C7.73836 10.3628 8.26158 10.3628 8.6776 10.6169L10.8777 11.9608L10.2796 9.45297C10.1665 8.97879 10.3282 8.48118 10.6983 8.16404L12.6563 6.48681L10.0865 6.28079C9.60055 6.24183 9.17726 5.93429 8.99005 5.48418L7.99997 3.10373Z" fill="white"/>
</g>
<defs>
<clipPath id="clip0_2514_550">
<rect width="15" height="15" fill="white" transform="translate(0.5 0.5)"/>
</clipPath>
</defs>
</svg>
