<svg width="10" height="10" viewBox="0 0 10 10" fill="none" xmlns="http://www.w3.org/2000/svg">
<path fill-rule="evenodd" clip-rule="evenodd" d="M0.16598 8.91051C-0.0553265 8.70219 -0.0553265 8.36448 0.16598 8.15627L7.69862 1.06667H2.83334C2.52038 1.06667 2.26667 0.827883 2.26667 0.533333C2.26667 0.238784 2.52038 0 2.83334 0H9.06667C9.21695 0 9.36111 0.056192 9.46742 0.156213C9.57361 0.256235 9.63334 0.391883 9.63334 0.533333V6.40001C9.63334 6.69456 9.37958 6.93334 9.06667 6.93334C8.75376 6.93334 8.5 6.69456 8.5 6.40001V1.82092L0.967359 8.91051C0.746065 9.11872 0.387274 9.11872 0.16598 8.91051Z" fill="white"/>
</svg>
