<svg width="11" height="9" viewBox="0 0 11 9" fill="none" xmlns="http://www.w3.org/2000/svg">
<path d="M10.3125 8.25C10.3125 8.25 11 8.25 11 7.5625C11 6.875 10.3125 4.8125 7.5625 4.8125C4.8125 4.8125 4.125 6.875 4.125 7.5625C4.125 8.25 4.8125 8.25 4.8125 8.25H10.3125ZM4.82762 7.5625L4.8125 7.55975C4.81319 7.37825 4.92731 6.85162 5.335 6.37725C5.7145 5.93244 6.38137 5.5 7.5625 5.5C8.74294 5.5 9.40981 5.93312 9.79 6.37725C10.1977 6.85162 10.3111 7.37894 10.3125 7.55975L10.307 7.56112L10.2974 7.5625H4.82762ZM7.5625 3.4375C7.92717 3.4375 8.27691 3.29263 8.53477 3.03477C8.79263 2.77691 8.9375 2.42717 8.9375 2.0625C8.9375 1.69783 8.79263 1.34809 8.53477 1.09023C8.27691 0.832366 7.92717 0.6875 7.5625 0.6875C7.19783 0.6875 6.84809 0.832366 6.59023 1.09023C6.33237 1.34809 6.1875 1.69783 6.1875 2.0625C6.1875 2.42717 6.33237 2.77691 6.59023 3.03477C6.84809 3.29263 7.19783 3.4375 7.5625 3.4375ZM9.625 2.0625C9.625 2.33335 9.57165 2.60155 9.468 2.85178C9.36435 3.10202 9.21243 3.32939 9.02091 3.52091C8.82939 3.71243 8.60202 3.86435 8.35178 3.968C8.10155 4.07165 7.83335 4.125 7.5625 4.125C7.29165 4.125 7.02345 4.07165 6.77322 3.968C6.52298 3.86435 6.29561 3.71243 6.10409 3.52091C5.91257 3.32939 5.76065 3.10202 5.657 2.85178C5.55335 2.60155 5.5 2.33335 5.5 2.0625C5.5 1.51549 5.7173 0.990886 6.10409 0.604092C6.49089 0.217299 7.01549 0 7.5625 0C8.10951 0 8.63411 0.217299 9.02091 0.604092C9.4077 0.990886 9.625 1.51549 9.625 2.0625ZM4.7685 5.005C4.49333 4.919 4.20991 4.86209 3.92287 4.83519C3.76157 4.81946 3.59957 4.81188 3.4375 4.8125C0.6875 4.8125 0 6.875 0 7.5625C0 8.02083 0.229167 8.25 0.6875 8.25H3.586C3.48413 8.03536 3.4333 7.80005 3.4375 7.5625C3.4375 6.86812 3.69669 6.15862 4.18688 5.566C4.35394 5.36387 4.5485 5.17481 4.7685 5.005ZM3.3825 5.5C2.97586 6.11149 2.75608 6.82817 2.75 7.5625H0.6875C0.6875 7.38375 0.80025 6.85437 1.21 6.37725C1.58469 5.94 2.23575 5.51306 3.3825 5.5ZM1.03125 2.40625C1.03125 1.85924 1.24855 1.33464 1.63534 0.947842C2.02214 0.561049 2.54674 0.34375 3.09375 0.34375C3.64076 0.34375 4.16536 0.561049 4.55216 0.947842C4.93895 1.33464 5.15625 1.85924 5.15625 2.40625C5.15625 2.95326 4.93895 3.47786 4.55216 3.86466C4.16536 4.25145 3.64076 4.46875 3.09375 4.46875C2.54674 4.46875 2.02214 4.25145 1.63534 3.86466C1.24855 3.47786 1.03125 2.95326 1.03125 2.40625ZM3.09375 1.03125C2.72908 1.03125 2.37934 1.17612 2.12148 1.43398C1.86362 1.69184 1.71875 2.04158 1.71875 2.40625C1.71875 2.77092 1.86362 3.12066 2.12148 3.37852C2.37934 3.63638 2.72908 3.78125 3.09375 3.78125C3.45842 3.78125 3.80816 3.63638 4.06602 3.37852C4.32388 3.12066 4.46875 2.77092 4.46875 2.40625C4.46875 2.04158 4.32388 1.69184 4.06602 1.43398C3.80816 1.17612 3.45842 1.03125 3.09375 1.03125Z" fill="black"/>
<path d="M4.82762 7.5625L4.8125 7.55975C4.81319 7.37825 4.92731 6.85162 5.335 6.37725C5.7145 5.93244 6.38137 5.5 7.5625 5.5C8.74294 5.5 9.40981 5.93312 9.79 6.37725C10.1977 6.85162 10.3111 7.37894 10.3125 7.55975L10.307 7.56112L10.2974 7.5625H4.82762Z" fill="black"/>
<path d="M7.5625 3.4375C7.92717 3.4375 8.27691 3.29263 8.53477 3.03477C8.79263 2.77691 8.9375 2.42717 8.9375 2.0625C8.9375 1.69783 8.79263 1.34809 8.53477 1.09023C8.27691 0.832366 7.92717 0.6875 7.5625 0.6875C7.19783 0.6875 6.84809 0.832366 6.59023 1.09023C6.33237 1.34809 6.1875 1.69783 6.1875 2.0625C6.1875 2.42717 6.33237 2.77691 6.59023 3.03477C6.84809 3.29263 7.19783 3.4375 7.5625 3.4375Z" fill="black"/>
<path d="M3.09375 1.03125C2.72908 1.03125 2.37934 1.17612 2.12148 1.43398C1.86362 1.69184 1.71875 2.04158 1.71875 2.40625C1.71875 2.77092 1.86362 3.12066 2.12148 3.37852C2.37934 3.63638 2.72908 3.78125 3.09375 3.78125C3.45842 3.78125 3.80816 3.63638 4.06602 3.37852C4.32388 3.12066 4.46875 2.77092 4.46875 2.40625C4.46875 2.04158 4.32388 1.69184 4.06602 1.43398C3.80816 1.17612 3.45842 1.03125 3.09375 1.03125Z" fill="black"/>
<path d="M3.3825 5.5C2.97586 6.11149 2.75608 6.82817 2.75 7.5625H0.6875C0.6875 7.38375 0.80025 6.85437 1.21 6.37725C1.58469 5.94 2.23575 5.51306 3.3825 5.5Z" fill="black"/>
</svg>
