<svg width="11" height="11" viewBox="0 0 11 11" fill="none" xmlns="http://www.w3.org/2000/svg">
<path fill-rule="evenodd" clip-rule="evenodd" d="M5.73351 0.866183C5.60464 0.737314 5.3957 0.737314 5.26682 0.866183L3.06682 3.06618C2.93794 3.19506 2.93794 3.404 3.06682 3.53288C3.1957 3.66175 3.40464 3.66175 3.53351 3.53288L5.17017 1.89622V6.96611C5.17017 7.14836 5.31791 7.29611 5.50017 7.29611C5.68242 7.29611 5.83017 7.14836 5.83017 6.96611V1.89622L7.46686 3.53288C7.5957 3.66175 7.80463 3.66175 7.93348 3.53288C8.0624 3.404 8.0624 3.19506 7.93348 3.06618L5.73351 0.866183ZM1.83346 7.33278C2.03597 7.33278 2.20013 7.49692 2.20013 7.69947V8.79947C2.20013 9.20559 2.52694 9.5328 2.93079 9.5328H8.06768C8.47226 9.5328 8.80013 9.20486 8.80013 8.79947V7.69947C8.80013 7.49692 8.96432 7.33278 9.1668 7.33278C9.36927 7.33278 9.53346 7.49692 9.53346 7.69947V8.79947C9.53346 9.60907 8.87801 10.2661 8.06768 10.2661H2.93079C2.1196 10.2661 1.4668 9.60834 1.4668 8.79947V7.69947C1.4668 7.49692 1.63096 7.33278 1.83346 7.33278Z" fill="black"/>
</svg>
