<svg width="10" height="11" viewBox="0 0 10 11" fill="none" xmlns="http://www.w3.org/2000/svg">
<path d="M9.83341 4.455L9.81935 4.41768L8.45968 0.734797C8.43211 0.662451 8.3832 0.601009 8.31997 0.559251C8.25632 0.517483 8.18174 0.497266 8.10654 0.501393C8.03135 0.50552 7.95924 0.533787 7.90019 0.58229C7.84174 0.630962 7.79954 0.697806 7.77954 0.772761L6.86059 3.69343H3.14105L2.2218 0.773086C2.20216 0.697607 2.15995 0.630547 2.10125 0.581564C2.04255 0.532582 1.97039 0.504204 1.89516 0.50052C1.82019 0.496413 1.74584 0.516721 1.68252 0.558606C1.6192 0.600491 1.57006 0.661863 1.54196 0.734148L0.180426 4.42287L0.16636 4.45954C-0.0290244 4.99074 -0.0529857 5.57343 0.0980805 6.11998C0.249147 6.66653 0.567072 7.14738 1.00404 7.49021L1.00904 7.49411L1.02092 7.50384L3.09479 9.11555L4.12001 9.92157L4.74327 10.4115C4.81651 10.4689 4.90577 10.5 4.99754 10.5C5.08931 10.5 5.17858 10.4689 5.25182 10.4115L5.87507 9.92157L6.90092 9.11555L8.98667 7.49411L8.9923 7.48989C9.43069 7.14732 9.74981 6.66599 9.90149 6.11856C10.0532 5.57113 10.0292 4.98734 9.8331 4.45532L9.83341 4.455Z" fill="white"/>
</svg>
