<svg width="12" height="12" viewBox="0 0 12 12" fill="none" xmlns="http://www.w3.org/2000/svg">
<path fill-rule="evenodd" clip-rule="evenodd" d="M5.99969 0.679688C5.77877 0.679688 5.59969 0.858771 5.59969 1.07969V2.81758C5.59969 3.03849 5.77877 3.21758 5.99969 3.21758C6.2206 3.21758 6.39969 3.03849 6.39969 2.81758V1.49715C8.70867 1.69961 10.5197 3.63815 10.5197 5.99969C10.5197 8.49603 8.49603 10.5197 5.99969 10.5197C3.50336 10.5197 1.47969 8.49603 1.47969 5.99969C1.47969 4.8846 1.88296 3.86473 2.5521 3.07643C2.69506 2.90801 2.67442 2.65559 2.50599 2.51263C2.33758 2.36967 2.08515 2.39031 1.94219 2.55872C1.15495 3.48617 0.679688 4.68794 0.679688 5.99969C0.679688 8.93787 3.06153 11.3197 5.99969 11.3197C8.93787 11.3197 11.3197 8.93787 11.3197 5.99969C11.3197 3.06153 8.93787 0.679688 5.99969 0.679688ZM5.3921 6.46428L3.37861 3.6576C3.32155 3.57807 3.33047 3.46892 3.39969 3.39971C3.4689 3.33049 3.57805 3.32157 3.65758 3.37863L6.46426 5.39211C6.84952 5.6685 6.89495 6.22443 6.55969 6.55971C6.22442 6.89498 5.66848 6.84954 5.3921 6.46428Z" fill="#808080"/>
</svg>
