<svg width="12" height="13" viewBox="0 0 12 13" fill="none" xmlns="http://www.w3.org/2000/svg">
<path fill-rule="evenodd" clip-rule="evenodd" d="M11.893 5.30237H6.12681C6.12681 5.90204 6.12681 7.10126 6.12313 7.70092H9.46447C9.33643 8.30059 8.88246 9.14027 8.24103 9.56304C8.24103 9.56304 8.2398 9.56657 8.23858 9.56597C7.38578 10.1291 6.26037 10.2568 5.42473 10.0889C4.1149 9.82867 3.0783 8.87874 2.65742 7.67221C2.65987 7.67041 2.66172 7.65378 2.66355 7.65258C2.40012 6.9042 2.40012 5.90204 2.66355 5.30237H2.66294C3.00234 4.20019 4.07017 3.1946 5.38183 2.91935C6.4368 2.69568 7.62717 2.93781 8.50263 3.75696C8.61904 3.64302 10.1139 2.18349 10.226 2.06476C7.23507 -0.64393 2.44606 0.308911 0.654089 3.80676H0.653476C0.653476 3.80676 0.654093 3.8069 0.650418 3.8135C-0.236074 5.53154 -0.199316 7.55596 0.656543 9.19185C0.654092 9.19364 0.652256 9.19473 0.650418 9.19653C1.42602 10.7017 2.83754 11.856 4.53823 12.2956C6.34491 12.7693 8.64414 12.4455 10.1843 11.0525L10.1862 11.0543C11.4911 9.87891 12.3034 7.87674 11.893 5.30237Z" fill="black"/>
</svg>
