<svg width="12" height="14" viewBox="0 0 12 14" fill="none" xmlns="http://www.w3.org/2000/svg">
<path d="M8.08676 13C8.08903 12.6214 8.09122 11.3075 8.09122 10.7873C8.09122 10.0355 7.85183 9.54359 7.58334 9.29459C9.25014 9.09481 11 8.41381 11 5.31618C11 4.43605 10.711 3.71605 10.2309 3.15269C10.3078 2.94869 10.5645 2.12864 10.1563 1.01864C10.1563 1.01864 9.52921 0.801989 8.10014 1.84599C7.50209 1.66656 6.86269 1.57777 6.22676 1.57421C5.59077 1.57777 4.95144 1.66664 4.35331 1.84599C2.92425 0.801989 2.29724 1.01864 2.29724 1.01864C1.88907 2.12864 2.14576 2.94869 2.22264 3.15269C1.74258 3.71605 1.45353 4.43605 1.45353 5.31618C1.45353 8.41381 3.20332 9.09481 4.87011 9.29459C4.6017 9.54359 4.36223 10.0355 4.36223 10.7873C4.36223 11.3075 4.3645 12.6214 4.36669 13M1 9.75675C1.75127 9.81375 2.18446 10.5461 2.18446 10.5461C2.85221 11.7784 3.93645 11.422 4.36254 11.2162" stroke="white"  stroke-linecap="round" stroke-linejoin="round"/>
</svg>
