<svg width="10" height="10" viewBox="0 0 10 10" fill="none" xmlns="http://www.w3.org/2000/svg">
<path fill-rule="evenodd" clip-rule="evenodd" d="M7.27273 4.09091C7.27273 5.84818 5.84818 7.27273 4.09091 7.27273C2.33364 7.27273 0.909091 5.84818 0.909091 4.09091C0.909091 2.33364 2.33364 0.909091 4.09091 0.909091C5.84818 0.909091 7.27273 2.33364 7.27273 4.09091ZM6.6444 7.28718C5.94455 7.84709 5.05683 8.18182 4.09091 8.18182C1.83156 8.18182 0 6.35025 0 4.09091C0 1.83156 1.83156 0 4.09091 0C6.35025 0 8.18182 1.83156 8.18182 4.09091C8.18182 5.05683 7.84709 5.94455 7.28718 6.6444L9.86691 9.224C10.0444 9.40155 10.0444 9.68936 9.86691 9.86691C9.68936 10.0444 9.40155 10.0444 9.224 9.86691L6.6444 7.28718Z" fill="white"/>
</svg>
