<svg width="25" height="12" viewBox="0 0 25 12" fill="none" xmlns="http://www.w3.org/2000/svg">
<rect width="25" height="12" rx="2" fill="black"/>
<path d="M4.736 9V3.32H6.688C8.032 3.32 8.704 3.792 8.704 4.848C8.704 5.488 8.328 5.952 7.696 6.064C8.472 6.176 8.944 6.704 8.944 7.44C8.944 8.472 8.248 9 7.008 9H4.736ZM5.424 5.776H6.688C7.52 5.776 7.984 5.448 7.984 4.88C7.984 4.28 7.552 3.992 6.688 3.992H5.424V5.776ZM5.424 8.328H7.008C7.784 8.328 8.224 8 8.224 7.4C8.224 6.8 7.784 6.448 7.008 6.448H5.424V8.328ZM11.3179 9.096C10.1179 9.096 9.37387 8.224 9.37387 6.88C9.37387 5.536 10.1179 4.664 11.2859 4.664C12.3899 4.664 13.1579 5.464 13.1579 6.888V7.088H10.0779C10.1259 8 10.5819 8.456 11.3179 8.456C11.8699 8.456 12.2299 8.176 12.3739 7.744L13.0939 7.8C12.8699 8.56 12.2139 9.096 11.3179 9.096ZM10.0779 6.496H12.4219C12.3579 5.68 11.9099 5.304 11.2859 5.304C10.6299 5.304 10.1899 5.712 10.0779 6.496ZM15.0561 9C14.2881 9 13.9281 8.664 13.9281 7.912V5.352H13.3041V4.76H13.9281V3.768H14.6001V4.76H15.7281V5.352H14.6001V7.896C14.6001 8.28 14.7681 8.408 15.1201 8.408H15.7281V9H15.0561ZM17.3028 9.096C16.4228 9.096 15.8708 8.672 15.8708 7.944C15.8708 7.224 16.2788 6.824 17.2068 6.648L18.7108 6.368C18.7108 5.656 18.3748 5.304 17.7028 5.304C17.1108 5.304 16.7828 5.576 16.6548 6.064L15.9428 6.008C16.1028 5.208 16.7428 4.664 17.7028 4.664C18.7908 4.664 19.3828 5.32 19.3828 6.392V8.144C19.3828 8.336 19.4468 8.408 19.6068 8.408H19.7748V9C19.7268 9.008 19.6228 9.016 19.5188 9.016C19.0068 9.016 18.7748 8.816 18.7188 8.344C18.5108 8.784 17.9268 9.096 17.3028 9.096ZM17.3668 8.504C18.2148 8.504 18.7108 7.96 18.7108 7.256V6.952L17.3348 7.208C16.7588 7.312 16.5748 7.528 16.5748 7.88C16.5748 8.28 16.8708 8.504 17.3668 8.504Z" fill="white"/>
</svg>
