<svg width="20" height="19" viewBox="0 0 20 19" fill="none" xmlns="http://www.w3.org/2000/svg">
<path fill-rule="evenodd" clip-rule="evenodd" d="M9.66577 0C4.32847 0 0 4.32791 0 9.66699C0 13.9373 2.76953 17.5608 6.6108 18.8396C7.09445 18.928 7.27069 18.6296 7.27069 18.3732C7.27069 18.1435 7.26239 17.5359 7.25764 16.7293C4.56881 17.3133 4.00149 15.4333 4.00149 15.4333C3.56176 14.3165 2.92799 14.0192 2.92799 14.0192C2.05031 13.4199 2.99445 13.4317 2.99445 13.4317C3.96471 13.5 4.47505 14.4281 4.47505 14.4281C5.33731 15.9051 6.7378 15.4784 7.28851 15.2309C7.37633 14.6067 7.62616 14.1805 7.90211 13.9391C5.75567 13.6945 3.49887 12.8656 3.49887 9.16139C3.49887 8.10567 3.87569 7.24343 4.49404 6.56751C4.39435 6.32301 4.06263 5.34028 4.58899 4.00921C4.58899 4.00921 5.4002 3.74928 7.24696 4.99964C8.01783 4.78541 8.84507 4.6786 9.66696 4.67444C10.4883 4.6786 11.3149 4.78541 12.087 4.99964C13.9325 3.74928 14.7425 4.00921 14.7425 4.00921C15.2701 5.34028 14.9384 6.32301 14.8393 6.56751C15.4588 7.24343 15.8327 8.10567 15.8327 9.16139C15.8327 12.8751 13.5723 13.6923 11.4194 13.9313C11.7659 14.2299 12.0751 14.8197 12.0751 15.7217C12.0751 17.0136 12.0632 18.0563 12.0632 18.3732C12.0632 18.6319 12.2377 18.9328 12.7279 18.8384C16.5661 17.5572 19.3333 13.9367 19.3333 9.66699C19.3333 4.32791 15.0048 0 9.66577 0Z" fill="black" fill-opacity="0.5"/>
</svg>
