<svg width="13" height="13" viewBox="0 0 13 13" fill="none" xmlns="http://www.w3.org/2000/svg">
<path fill-rule="evenodd" clip-rule="evenodd" d="M4.5 0C4.22386 0 4 0.22386 4 0.5C4 0.77614 4.22386 1 4.5 1H12V12H4.5C4.22386 12 4 12.2239 4 12.5C4 12.7761 4.22386 13 4.5 13H12C12.5523 13 13 12.5523 13 12V1C13 0.44772 12.5523 0 12 0H4.5ZM6.60355 3.89645C6.40829 3.70118 6.09171 3.70118 5.89645 3.89645C5.70118 4.09171 5.70118 4.40829 5.89645 4.60355L7.29289 6H0.5C0.223858 6 0 6.22386 0 6.5C0 6.77614 0.223858 7 0.5 7H7.29289L5.89645 8.39645C5.70118 8.59171 5.70118 8.90829 5.89645 9.1036C6.09171 9.2988 6.40829 9.2988 6.60355 9.1036L8.85355 6.85355C9.04882 6.65829 9.04882 6.34171 8.85355 6.14645L6.60355 3.89645Z" fill="black"/>
</svg>
