<svg width="12" height="12" viewBox="0 0 12 12" fill="none" xmlns="http://www.w3.org/2000/svg">
<path fill-rule="evenodd" clip-rule="evenodd" d="M6.80965 2.40416C7.35073 2.03658 8.0349 2.02938 8.54314 2.36318C8.65858 2.43897 8.78178 2.55927 9.1113 2.88878C9.44082 3.21829 9.56114 3.34154 9.6369 3.45696C9.97074 3.96523 9.96354 4.64937 9.59594 5.19045C9.51202 5.31394 9.38218 5.44632 9.04058 5.78792L8.54562 6.28289C8.38946 6.4391 8.38946 6.69237 8.54562 6.84857C8.70186 7.00479 8.95514 7.00479 9.1113 6.84857L9.60626 6.3536L9.64066 6.31926C9.93634 6.02364 10.1255 5.83447 10.2577 5.63999C10.7979 4.84481 10.8258 3.80985 10.3056 3.01781C10.1787 2.82465 9.99386 2.63984 9.71274 2.3588L9.67698 2.32309L9.6413 2.28737C9.36026 2.00623 9.17546 1.82134 8.98226 1.69449C8.19026 1.17433 7.15528 1.20222 6.36011 1.74241C6.16563 1.87452 5.97645 2.06376 5.68082 2.35947L5.6465 2.39381L5.15152 2.88878C4.99531 3.04499 4.99531 3.29825 5.15152 3.45446C5.30773 3.61067 5.56099 3.61067 5.7172 3.45446L6.21218 2.95949C6.55378 2.61789 6.68615 2.48805 6.80965 2.40416ZM3.45447 5.71721C3.61067 5.561 3.61067 5.30773 3.45447 5.15152C3.29825 4.99531 3.04499 4.99531 2.88878 5.15152L2.3938 5.64649L2.35947 5.68082C2.06375 5.97645 1.87452 6.16562 1.7424 6.36011C1.20222 7.15529 1.17434 8.19023 1.69449 8.98231C1.82135 9.17543 2.00623 9.36023 2.28738 9.64127L2.32309 9.67703L2.35879 9.71271C2.63983 9.99383 2.82464 10.1788 3.01781 10.3056C3.80985 10.8258 4.84481 10.7979 5.63999 10.2577C5.83447 10.1256 6.02364 9.93631 6.31927 9.64063L6.3536 9.60631L6.84858 9.11135C7.00479 8.95511 7.00479 8.70183 6.84858 8.54567C6.69236 8.38943 6.4391 8.38943 6.28289 8.54567L5.78791 9.04063C5.44631 9.38223 5.31394 9.51207 5.19045 9.59591C4.64936 9.96351 3.96523 9.97071 3.45695 9.63695C3.34155 9.56111 3.21829 9.44079 2.88878 9.11135C2.55927 8.78183 2.43898 8.65855 2.36318 8.54311C2.02939 8.03487 2.03659 7.35073 2.40415 6.80965C2.48804 6.68616 2.61789 6.55378 2.95949 6.21218L3.45447 5.71721ZM7.69747 4.86829C7.85368 4.71209 7.85368 4.45881 7.69747 4.30261C7.54127 4.1464 7.288 4.1464 7.13179 4.30261L4.30336 7.13104C4.14715 7.28725 4.14715 7.54051 4.30336 7.69672C4.45957 7.85293 4.71283 7.85293 4.86905 7.69672L7.69747 4.86829Z" fill="black" fill-opacity="0.2"/>
</svg>
