<svg width="10" height="10" viewBox="0 0 10 10" fill="none" xmlns="http://www.w3.org/2000/svg">
<path fill-rule="evenodd" clip-rule="evenodd" d="M3.33301 3.09082C3.33301 2.50702 3.49447 2.07041 3.76183 1.78252C4.0259 1.49818 4.43022 1.31901 5.00061 1.31901C5.57131 1.31901 5.97505 1.49782 6.23849 1.78153C6.50526 2.0688 6.66634 2.50486 6.66634 3.08898V4.00014H3.33301V3.09082ZM2.66634 4.00014V3.09082C2.66634 2.3878 2.86193 1.77184 3.27333 1.32886C3.68802 0.882336 4.28417 0.652344 5.00061 0.652344C5.71689 0.652344 6.31269 0.881696 6.72701 1.32789C7.13807 1.77052 7.33301 2.38612 7.33301 3.08898V4.00014H7.99967C8.36787 4.00014 8.66634 4.29862 8.66634 4.6668V8.66681C8.66634 9.03501 8.36787 9.33348 7.99967 9.33348H1.99967C1.63149 9.33348 1.33301 9.03501 1.33301 8.66681V4.6668C1.33301 4.29862 1.63149 4.00014 1.99967 4.00014H2.66634ZM1.99967 4.6668H7.99967V8.66681H1.99967V4.6668Z" fill="black" fill-opacity="0.2"/>
</svg>
