<svg width="14" height="14" viewBox="0 0 14 14" fill="none" xmlns="http://www.w3.org/2000/svg">
  <path d="M13.2031 12.2969L10.5234 9.61719C11.2422 8.6875 11.6641 7.5 11.6641 6.3125C11.6641 3.375 9.28906 1 6.35156 1C3.375 1 1 3.375 1 6.3125C1 9.28906 3.375 11.6641 6.35156 11.6641C7.5 11.6641 8.6875 11.2422 9.61719 10.5234L12.2969 13.2031C12.5078 13.4141 12.9297 13.4141 13.1406 13.2031C13.3516 12.9922 13.3516 12.5078 13.2031 12.2969ZM2.82812 6.3125C2.82812 4.35938 4.39844 2.82812 6.35156 2.82812C8.26562 2.82812 9.83594 4.35938 9.83594 6.3125C9.83594 8.30469 8.26562 9.83594 6.35156 9.83594C4.39844 9.83594 2.82812 8.30469 2.82812 6.3125Z" fill="#AAAAAA"/>
</svg> 