<svg width="630" height="635" viewBox="0 0 630 635" fill="none" xmlns="http://www.w3.org/2000/svg">
<path d="M103.262 85.47C105.055 83.9012 107.068 82.0876 109.301 80.0292C111.054 78.4129 113.063 76.7312 115.33 74.9841C117.777 73.1016 120.492 70.5666 123.471 68.3917C127.868 65.1781 130.569 63.1886 131.572 62.4232C134.305 60.3386 137.265 58.2683 140.451 56.2122C148.564 50.9782 156.127 46.3075 163.265 42.5817C167.014 40.6207 169.697 39.0804 173.175 37.4403C176.008 36.1045 178.49 34.9267 180.624 33.907C186.474 31.107 192.004 28.73 197.212 26.7762C197.483 26.674 200.952 25.3738 207.618 22.8756C210.907 21.642 214.418 20.4749 218.149 19.3744C224.149 17.5988 229.433 16.0574 233.999 14.7501C235.88 14.2129 237.453 13.804 238.719 13.5236C240.92 13.0387 242.518 12.5538 245.069 12.0938C245.834 11.9536 247.735 11.5412 250.769 10.8566C253.905 10.1507 257.476 9.68004 261.097 8.99548C266.352 8.00073 271.856 7.67271 276.883 6.98459C278.859 6.71361 281.552 6.5496 283.143 6.53178C283.926 6.52227 285.478 6.34281 287.799 5.9934C289.663 5.7153 291.222 5.54178 292.476 5.47285C295.187 5.32073 302.486 4.95349 314.372 4.37114C315.859 4.29983 317.165 4.3343 318.293 4.47453C320.851 4.79186 323.694 4.38896 326.116 4.74194C327.732 4.98082 329.623 4.89525 331.271 4.98439C338.077 5.35757 342.583 5.61666 344.788 5.76165C347.627 5.95062 350.603 6.59596 353.196 6.73857C355.215 6.85029 356.798 7.00479 357.944 7.20208C361.397 7.80106 365.282 7.96151 368.632 8.72451C371.086 9.28428 373.826 9.44115 376.537 10.1542C379.57 10.9493 382.845 11.2381 385.78 12.0938C386.113 12.1913 387.122 12.3624 388.806 12.6072C389.41 12.6952 390.406 12.9115 391.795 13.2561C397.905 14.7726 404.435 16.5791 411.387 18.6756C415.768 19.9972 419.858 21.3722 423.659 22.8008C428.742 24.7083 434.447 26.5765 439.801 28.8691C448.755 32.709 457.792 36.8128 466.621 41.7367C472.003 44.7387 475.519 46.7449 477.17 47.7551C486.448 53.4241 494.389 58.5654 502.227 64.4733C507.96 68.7946 515.045 74.1463 521.238 79.6727C523.692 81.8654 527.887 85.5057 531.483 89.014C536.544 93.9533 539.693 97.0742 540.93 98.3768C542.599 100.136 547.144 105.12 554.564 113.33C555.206 114.041 556.542 115.633 558.57 118.108C561.021 121.099 563.258 123.509 565.623 126.554C566.194 127.294 567.212 128.594 568.677 130.455C572.472 135.279 576.289 140.791 579.475 145.993C583.93 153.264 587.668 159.707 590.691 165.321C594.843 173.029 598.845 181.214 602.695 189.876C605.949 197.199 609.087 205.336 612.11 214.285C614.145 220.308 615.325 223.938 615.648 225.174C617.382 231.82 619.045 236.918 620.425 242.954C621.676 248.426 622.447 251.889 622.737 253.344C623.607 257.691 624.478 262.975 625.348 269.196C625.71 271.765 626.125 274.537 626.593 277.51C626.883 279.357 627.242 282.138 627.67 285.853C628.273 291.073 628.042 298.389 628.266 302.703C628.53 307.649 628.709 312.088 628.548 316.844C628.234 325.989 628.195 333.641 627.678 342.754C627.518 345.551 627.247 348.133 626.864 350.498C626.236 354.381 626.147 357.286 625.498 361.037C625.253 362.454 624.692 366.034 623.814 371.776C623.595 373.202 623.16 375.393 622.508 378.347C621.713 381.948 620.971 385.87 620.04 389.543C617.478 399.668 615.689 406.471 614.671 409.951C614.255 411.372 613.344 414.077 611.938 418.066C611.272 419.963 610.346 422.663 609.159 426.167C607.036 432.432 604.694 438.511 602.135 444.404C601.721 445.357 600.579 447.954 598.707 452.194C595.564 459.314 592.382 465.514 588.515 472.225C586.367 475.947 584.423 479.626 582.243 483.11C579.803 487.017 578.008 489.897 576.857 491.749C575.901 493.289 574.631 494.829 573.617 496.541C572.057 499.184 570.457 501.555 568.816 503.654C567.624 505.183 566.558 506.959 565.445 508.353C561.452 513.349 559.19 516.189 558.659 516.871C555.631 520.743 551.535 524.643 548.692 528.152C546.566 530.773 544.46 533.127 542.374 535.211C539.261 538.323 536.159 541.471 533.067 544.656C530.634 547.162 527.827 549.769 525.183 552.429C524.344 553.272 523.245 554.255 521.887 555.377C515.97 560.271 512.122 563.378 510.343 564.697C507.858 566.542 506.331 567.703 505.762 568.181C502.245 571.136 500.033 572.484 495.556 575.682C493.958 576.823 492.056 578.122 489.852 579.579C484.905 582.843 481.502 585.064 479.642 586.243C477.716 587.462 472.54 590.462 464.117 595.242C463.094 595.822 461.256 596.764 458.601 598.069C455.216 599.734 450.471 602.102 446.433 603.806C443.693 604.965 440.311 606.459 437.5 607.525C426.18 611.822 419.279 614.365 416.799 615.151C407.555 618.092 400.841 620.116 396.657 621.223C394.771 621.725 392.492 622.27 389.819 622.86C387.602 623.347 381.041 624.621 370.134 626.682C366.567 627.359 363.31 627.552 360.013 628.194C356.41 628.9 352.672 628.953 349.036 629.27C348.589 629.308 346.993 629.546 344.249 629.983C342.37 630.283 340.171 630.428 337.653 630.418C330.511 630.397 318.96 630.739 310.548 630.579C300.213 630.383 294.912 630.618 287.353 629.406C283.404 628.775 278.93 628.832 275.134 628.072C273.593 627.766 271.933 627.543 270.154 627.406C267.04 627.167 263.494 626.258 260.091 625.858C257.876 625.594 255.835 624.992 253.341 624.56C247.322 623.517 244.31 622.995 244.305 622.995C241.961 622.614 239.746 621.876 237.813 621.576C235.565 621.23 233.228 620.414 230.703 619.861C229.813 619.666 228.869 619.412 227.87 619.098C222.08 617.28 217.371 615.986 212.256 614.157C208.225 612.72 205.406 611.964 201.907 610.506C199.445 609.481 196.249 608.208 192.318 606.687C189.853 605.731 187.141 604.398 185.072 603.528C179.609 601.227 175.365 599.27 172.34 597.656C169.89 596.347 165.723 594.565 163.458 593.217C159.388 590.792 155.316 588.376 151.239 585.968C149.234 584.782 148.118 584.122 147.889 583.986C146.784 583.32 145.686 582.629 144.597 581.911C139.514 578.548 133.896 574.617 127.741 570.12C124.448 567.714 121.601 565.175 118.487 562.793C115.309 560.362 112.879 558.262 109.579 555.52C108.531 554.647 107.371 553.618 106.101 552.432C99.7298 546.485 95.9852 542.94 94.8674 541.796C94.0969 541.005 90.495 537.252 84.0618 530.537C82.3638 528.764 80.6205 526.775 78.8321 524.572C78.2613 523.871 76.5989 521.907 73.8449 518.682C72.7485 517.398 70.702 514.914 67.7054 511.23C66.1786 509.35 64.7611 507.508 63.4531 505.704C61.9227 503.593 58.3303 499.022 56.1435 495.728C53.3788 491.56 51.1385 488.444 48.9445 484.632C47.4534 482.04 44.6958 477.961 42.7266 474.471C40.7764 471.012 38.5064 466.743 35.9164 461.664C31.8211 453.634 28.2596 445.995 25.2321 438.745C24.1334 436.112 22.0881 430.699 19.0962 422.508C17.6598 418.57 16.6228 415.483 15.9855 413.249C14.5121 408.079 12.7534 402.999 11.4192 397.383C10.3811 393.019 9.93161 390.566 8.96128 387.193C8.45115 385.417 8.27634 383.449 7.85183 381.838C7.16689 379.235 7.067 376.679 6.37493 374.112C5.85766 372.201 5.77561 370.297 5.27261 368.432C4.99673 367.417 4.74344 365.941 4.51275 364.004C4.10607 360.577 3.15715 356.559 2.98948 353.646C2.63274 347.467 2.54356 344.633 2.0905 339.691C1.97397 338.422 1.73138 335.233 1.36275 330.125C1.13444 326.927 1.12731 324.87 1.05239 321.333C0.983422 317.991 1.08925 312.108 1.36989 303.684C1.47691 300.444 1.65885 297.715 1.9157 295.498C2.39016 291.415 2.47221 289.29 2.79684 285.065C3.14645 280.505 4.02759 276.548 4.46281 271.674C4.60788 270.041 4.78982 268.793 5.00862 267.93C5.26785 266.915 5.52113 265.326 5.76847 263.163C6.00749 261.077 6.70313 258.681 7.02062 256.321C7.111 255.66 7.22753 254.996 7.37023 254.328C8.40239 249.467 9.29305 245.583 10.0422 242.676C10.651 240.299 11.0898 238.515 11.3586 237.325C11.7343 235.661 12.1921 233.883 12.732 231.991C14.2838 226.55 15.4111 222.435 17.0378 217.925C18.4767 213.944 19.2805 211.69 19.4494 211.165C19.7776 210.149 20.434 208.89 20.8442 207.717C22.1594 203.988 23.6946 200.171 25.4497 196.265C26.3463 194.266 27.036 192.683 27.5188 191.516C29.488 186.736 32.0672 181.185 35.2565 174.862C35.8082 173.769 36.5027 172.465 37.3398 170.951C38.2364 169.332 38.919 168.019 39.3875 167.011C39.73 166.277 40.3222 165.524 40.5861 164.911C40.8763 164.229 42.0285 162.172 44.0429 158.739C48.3238 151.452 51.5594 146.214 53.7498 143.026C53.9876 142.682 56.5668 139.024 61.4874 132.052C62.7551 130.26 63.9109 128.727 64.9549 127.453C66.5745 125.481 68.1192 123.117 69.6068 121.327C72.3965 117.972 75.0578 114.261 77.9759 111.173C80.3423 108.673 82.4315 106.367 84.2438 104.256C85.8586 102.378 87.3593 100.726 88.7458 99.3003C93.6141 94.2873 98.4527 89.6772 103.262 85.47ZM331.132 46.2006C331.037 46.321 330.983 46.4698 330.978 46.6248C330.943 47.9191 330.811 48.9103 330.868 50.0762C331.072 54.1621 331.163 58.8304 331.139 64.0811C331.135 65.4181 331.349 67.2508 331.396 68.3667C331.638 74.0999 331.974 79.4979 332.091 84.9174C332.115 86.0583 332.255 87.7887 332.512 90.1086C333.097 95.3712 333.479 97.8135 333.604 102.017C333.668 104.242 333.788 106.968 333.964 110.196C334.071 112.186 334.367 114.107 334.496 115.887C334.591 117.256 334.743 118.675 334.952 120.144C335.423 123.443 335.824 126.471 336.155 129.228C336.558 132.583 337.282 135.436 337.767 138.538C338.081 140.551 338.601 142.849 339.326 145.433C341.933 154.715 343.48 160.081 343.967 161.531C345.011 164.64 346.419 168.432 348.191 172.908C351.223 180.569 354.785 187.854 358.875 194.764C358.963 194.912 360.269 197.053 362.792 201.189C365.225 205.172 368.022 209.147 370.48 212.891C372.342 215.736 374.846 218.774 376.687 221.298C377.677 222.658 379.346 224.623 381.696 227.195C381.839 227.352 383.603 229.311 386.99 233.071C388.098 234.3 390.799 236.983 395.091 241.122C397.399 243.343 398.88 244.987 400.849 246.652C401.603 247.291 403.17 248.752 405.551 251.034C407.779 253.17 410.051 255.159 412.365 256.998C417.24 260.878 422.194 264.394 427.226 267.549C436.698 273.485 445.527 277.731 455.99 282.666C457.717 283.481 462.032 285.196 468.936 287.811C471.888 288.93 474.279 289.769 476.11 290.328C480.55 291.688 482.964 292.41 483.352 292.496C485.849 293.042 487.645 293.47 488.739 293.779C490.911 294.396 492.88 294.503 494.803 295.081C497.828 295.986 501.631 296.254 504.696 296.931C507.36 297.523 510.878 297.769 513.322 298.304C516.165 298.928 518.355 298.928 521.373 299.281C526.736 299.913 530.736 300.273 533.374 300.361C534.53 300.399 536.457 300.595 539.157 300.949C541.214 301.218 543.818 301.377 546.969 301.427C563.049 301.681 572.978 301.765 576.757 301.677C580.348 301.593 582.402 301.553 582.918 301.555C584.88 301.559 586.003 301.049 585.839 298.967C585.716 297.374 585.651 296.273 585.647 295.662C585.6 290.431 584.951 284.081 584.516 279.45C584.228 276.412 583.895 274.092 583.517 272.49C583.201 271.154 582.972 269.965 582.832 268.921C582.34 265.245 581.673 262.368 580.859 257.747C580.396 255.112 579.525 252.092 578.994 249.543C578.266 246.046 576.989 241.14 575.704 236.954C574.723 233.77 573.564 229.57 572.43 226.325C569.75 218.652 567.139 211.532 563.604 204.209C560.229 197.228 558.481 193.338 555.713 188.525C553.975 185.505 552.581 182.816 550.815 179.868C548.869 176.628 546.923 173.447 544.975 170.323C542.813 166.858 540.919 164.33 539.046 161.385C536.756 157.787 533.791 154.154 531.019 150.286C529.997 148.852 528.839 147.37 527.545 145.84C525.668 143.615 521.198 138.021 517.884 134.462C514.581 130.915 511.459 127.207 507.778 123.941C505.684 122.083 504.228 120.29 502.145 118.454C500.447 116.959 498.718 115.322 496.958 113.544C495.335 111.904 493.669 110.72 492.156 109.201C491.448 108.493 490.175 107.448 488.339 106.067C487.852 105.701 486.16 104.318 483.263 101.917C480.542 99.6616 476.8 96.808 472.036 93.3567C468.871 91.063 464.011 87.9266 457.456 83.9476C455.007 82.462 452.206 80.81 449.055 78.9917C445.709 77.0592 443.15 75.658 441.378 74.788C434.179 71.2583 428.122 68.3917 421.551 65.5501C417.315 63.7198 413.308 62.1677 409.529 60.8936C403.652 58.9136 399.715 57.6206 397.717 57.0145C396.238 56.5676 392.243 55.4445 385.734 53.6451C383.394 52.9998 381.061 52.6967 378.949 52.0086C378.426 51.8375 377.103 51.5522 374.982 51.1529C372.335 50.6502 370.797 50.1368 368.14 49.8159C367.319 49.7184 366.362 49.5509 365.268 49.3132C360.699 48.3172 355.744 47.5792 350.403 47.099C346.569 46.7568 342.298 46.3206 337.589 45.7905C335.446 45.5481 333.586 45.5148 332.009 45.6907C331.662 45.7287 331.37 45.8987 331.132 46.2006ZM298.765 47.8941C298.74 47.8503 298.706 47.8122 298.666 47.7821C298.625 47.752 298.579 47.7306 298.529 47.7194C297.226 47.4152 295.999 47.2607 294.848 47.2559C291.347 47.2417 287.87 47.2702 284.417 47.3415C280.247 47.4271 275.677 48.2792 272.298 48.543C271.699 48.5906 270.982 48.6975 270.147 48.8639C268.082 49.2775 266.847 49.5521 264.81 49.8515C262.513 50.1903 260.358 50.7358 258.032 51.1208C253.497 51.8767 249.446 52.6967 245.878 53.581C245.201 53.7497 242.336 54.5222 237.285 55.8985C233.532 56.9206 230.685 57.762 228.744 58.4228C223.971 60.0522 219.305 61.3464 214.407 63.2504C206.523 66.3142 198.624 69.8131 190.709 73.7469C187.42 75.3799 183.626 77.4692 179.329 80.0149C177.574 81.056 175.44 82.1364 173.353 83.4734C172.806 83.8228 170.245 85.489 165.669 88.4721C162.309 90.6613 159.498 92.879 156.758 94.6331C154.849 95.8561 153.223 97.2252 151.375 98.5836C148.524 100.68 145.613 103.229 142.827 105.365C141.174 106.632 139.669 107.894 138.311 109.151C131.965 115.027 125.087 121.456 118.908 128.177C117.177 130.061 115.045 132.309 112.512 134.919C108.416 139.133 104.706 144.032 101.225 148.064C99.6263 149.915 98.392 151.894 96.9009 153.659C95.9757 154.754 94.9245 156.171 93.7473 157.909C92.7556 159.37 91.4083 161.313 89.7055 163.738C87.9253 166.273 86.5483 168.733 85.0322 171.054C83.8121 172.918 82.686 174.769 81.6539 176.609C77.2874 184.391 74.8853 188.683 74.4477 189.484C74.4406 189.496 73.1219 192.084 70.4915 197.249C68.1763 201.795 65.8575 207.443 63.6742 212.491C62.4934 215.215 61.3412 218.389 60.3815 220.834C59.6134 222.784 58.8547 224.891 58.1056 227.156C56.0317 233.436 54.2956 238.952 52.8972 243.703C52.3383 245.609 51.8282 247.725 51.3668 250.049C50.6533 253.641 50.2098 255.774 50.0361 256.449C49.551 258.332 49.2323 259.859 49.0801 261.031C48.8589 262.723 48.6389 264.127 48.4201 265.242C47.4748 270.019 47.0788 272.843 46.1941 276.754C45.8124 278.434 45.609 280.352 45.2309 282.227C44.999 283.372 44.7457 284.367 44.6458 285.639C44.5067 287.362 44.3961 288.955 44.0786 290.852C43.7219 292.952 43.6541 295.063 43.2367 297.092C42.9085 298.682 42.4626 300.496 44.3711 301.138C45.3129 301.457 46.338 301.63 47.4462 301.659C60.3031 301.987 73.8591 302.12 88.1144 302.058C92.4119 302.039 96.3289 301.971 99.8654 301.855C103.34 301.741 106.565 301.22 110.032 300.921C114.049 300.576 116.376 300.338 117.014 300.208C121.081 299.373 124.723 298.956 128.626 298.029C133.848 296.793 138.035 295.766 141.186 294.949C146.121 293.67 151.439 292.133 157.14 290.339C160.893 289.155 164.039 287.843 168.067 286.36C174.994 283.81 180.759 281.143 187.612 277.792C189.85 276.699 192.418 275.328 195.314 273.681C200.712 270.611 203.476 269.171 207.654 266.368C214.856 261.534 221.738 256.303 228.202 250.542C229.617 249.279 231.162 247.909 232.836 246.431C233.611 245.746 235.265 244.131 237.798 241.585C239.361 240.012 240.908 238.296 242.439 236.437C244.17 234.337 246.731 231.716 248.754 229.124C250.687 226.646 252.639 224.414 254.372 221.983C255.171 220.861 256.699 218.795 258.956 215.786C260.626 213.557 261.978 211.137 263.651 208.691C265.418 206.102 267.371 202.859 269.509 198.961C270.8 196.608 272.134 194.365 273.244 191.955C275.598 186.838 278.556 181.08 280.232 176.951C280.76 175.656 281.737 172.78 283.161 168.323C283.593 166.975 284.135 165.785 284.485 164.462C284.732 163.518 285.047 162.549 285.43 161.556C286.574 158.587 287.466 155.653 288.105 152.753C288.912 149.12 290.003 145.184 290.728 141.254C291.068 139.41 291.333 138.154 291.523 137.486C292.201 135.101 292.336 132.84 292.954 130.351C293.535 128.02 293.763 124.936 294.145 123.014C295.016 118.639 295.255 114.104 295.383 109.419C295.414 108.261 295.601 106.757 295.943 104.905C296.395 102.478 296.658 99.7471 296.731 96.7118C296.881 90.6149 296.874 87.6556 297.292 82.4929C297.494 79.9876 297.67 77.1163 297.82 73.8789C297.941 71.2084 298.187 69.0121 298.376 66.8372C298.529 65.0687 298.305 63.532 298.526 61.9918C298.688 60.8556 298.77 59.6457 298.772 58.3622C298.774 56.4583 298.918 54.1609 299.204 51.4702C299.318 50.3971 299.232 48.7142 298.765 47.8941ZM313.491 429.896C314.793 431.386 316.209 429.422 316.602 428.217C317.47 425.55 317.911 424.198 317.925 424.163C321.493 414.966 325.751 406.182 330.7 397.811C333.138 393.687 335.7 389.575 338.388 385.475C339.462 383.838 340.51 382.54 341.763 380.804C343.356 378.591 344.385 377.208 344.848 376.654C347.542 373.431 350.028 370.051 352.961 367.027C357.501 362.359 361.261 358.57 364.241 355.661C366.557 353.398 368.769 351.419 370.876 349.724C373.131 347.911 374.749 346.587 375.731 345.752C378.667 343.257 382.434 340.525 385.185 338.532C386.143 337.838 389.244 335.831 394.488 332.51C397.701 330.476 400.668 328.767 403.389 327.383C409.023 324.514 412.077 322.967 412.55 322.741C415.777 321.196 419.763 319.426 424.508 317.432C425.828 316.876 426.388 316.32 426.17 314.936C426.161 314.874 426.136 314.815 426.099 314.764C426.061 314.714 426.012 314.674 425.956 314.648C423.904 313.671 421.923 312.911 420.013 312.369C418.979 312.077 417.958 311.56 416.899 311.15C414.234 310.127 411.68 308.829 409.043 307.659C406.908 306.709 405.087 305.823 403.582 305.003C402.331 304.323 399.981 303.105 396.533 301.349C394.183 300.151 391.709 298.702 389.112 297.002C383.947 293.619 380.8 291.651 376.73 288.435C374.202 286.433 372.618 285.146 371.978 284.573C367.467 280.533 364.945 278.27 364.412 277.785C359.101 272.945 353.973 267.632 349.026 261.844C346.714 259.138 344.499 256.089 342.244 253.28C338.924 249.144 335.707 244.604 332.594 239.66C330.145 235.769 328.905 233.799 328.874 233.752C327.42 231.477 326.23 229.477 325.303 227.751C321.973 221.55 319.13 215.379 316.773 209.24C316.407 208.287 316.073 207.704 315.771 207.493C315.162 207.067 314.507 207.024 313.805 207.364C313.603 207.462 313.435 207.62 313.323 207.817C312.536 209.203 312.07 210.215 311.925 210.855C311.309 213.55 310.354 216.281 309.06 219.048C308.038 221.237 306.562 224.293 304.633 228.215C301.608 234.358 298.508 239.606 295.137 244.623C292.692 248.26 289.655 252.353 286.026 256.902C280.537 263.781 274.158 270.538 266.89 277.172C266.878 277.181 264.495 279.275 259.741 283.454C257.604 285.333 255.443 286.827 253.348 288.567C250.591 290.859 247.687 292.678 244.619 294.906C243.478 295.735 242.18 296.585 240.727 297.455C234.767 301.025 228.791 304.263 222.797 307.167C219.294 308.865 215.395 310.234 211.082 311.949C209.536 312.564 206.519 313.527 202.032 314.837C201.392 315.024 201.084 315.474 201.108 316.184C201.115 316.408 201.183 316.626 201.304 316.815C201.425 317.004 201.595 317.158 201.796 317.261C202.21 317.473 202.968 317.766 204.069 318.142C204.299 318.22 205.051 318.53 206.323 319.072C210.697 320.929 213.22 322.003 213.893 322.295C219.446 324.701 225.58 327.696 232.294 331.28C235.181 332.823 239.342 335.37 244.776 338.921C247.705 340.839 250.223 342.893 252.992 344.84C254.97 346.23 256.916 347.762 258.828 349.435C262.299 352.477 265.72 355.247 268.895 358.317C270.596 359.959 272.044 361.423 273.24 362.709C278.353 368.202 283.316 374.185 288.127 380.658C289.743 382.829 291.405 385.492 293.307 388.248C294.52 390.003 295.753 391.942 297.006 394.067C298.911 397.295 300.105 399.363 300.588 400.271C302.162 403.228 304.612 408.117 307.937 414.939C309.913 418.992 311.316 422.914 312.146 426.705C312.389 427.828 312.842 429.158 313.491 429.896ZM330.49 591.784C332.198 592.475 334.292 591.787 336.051 591.705C338.491 591.586 340.726 591.254 342.754 590.707C343.387 590.538 344.065 590.407 344.788 590.315C346.728 590.072 347.791 589.983 349.9 589.534C351.22 589.253 352.537 589.064 353.852 588.967C355.08 588.874 356.225 588.621 357.591 588.439C359.935 588.125 362.856 587.434 364.423 587.181C366.28 586.883 367.626 586.628 368.461 586.414C370.844 585.797 373.341 585.544 375.902 584.966C382.093 583.571 388.645 581.81 395.559 579.683C400.006 578.311 404.455 576.73 408.904 574.941C416.153 572.024 420.521 570.228 422.007 569.553C428.486 566.611 433.416 564.288 436.798 562.586C441.816 560.062 448.113 556.53 455.69 551.99C460.125 549.334 464.395 546.228 468.315 543.732C470.083 542.611 472.534 540.883 475.671 538.548C479.672 535.575 482.063 533.766 482.845 533.122C488.81 528.212 494.215 523.966 499.976 518.479C506.088 512.66 509.959 508.872 511.588 507.116C517.564 500.674 521.909 495.717 524.623 492.244C526.5 489.841 528.182 487.731 529.671 485.912C531.483 483.698 532.742 481.719 534.608 479.352C535.842 477.79 537.054 476.136 538.243 474.389C541.68 469.338 543.714 466.321 544.347 465.34C544.618 464.921 546.314 462.087 549.434 456.836C550.78 454.573 552.097 452.192 553.383 449.691C555.581 445.417 556.815 442.994 557.086 442.421C558.816 438.792 561.774 432.538 563.818 427.5C565.112 424.31 565.883 422.377 566.133 421.699C568.797 414.43 570.344 410.235 570.774 409.113C571.949 406.047 572.904 403.123 573.639 400.342C574.185 398.278 574.93 396.727 575.376 394.73C575.514 394.108 575.916 392.698 576.582 390.502C578.699 383.502 580.292 376.462 581.362 369.384C581.629 367.615 581.871 366.251 582.09 365.291C582.611 363.002 582.818 360.599 583.41 357.928C583.842 355.971 583.981 353.667 584.384 351.817C584.869 349.592 584.948 348.056 585.508 345.203C585.722 344.122 585.888 342.85 586.007 341.388C586.342 337.252 586.502 334.877 586.485 334.261C586.464 333.531 586.351 332.908 586.146 332.393C586.122 332.33 586.083 332.273 586.033 332.228C585.982 332.183 585.922 332.15 585.857 332.132C583.072 331.4 580.662 331.003 578.626 330.942C571.408 330.73 564.391 330.849 557.575 331.298C552.053 331.664 547.962 331.892 545.303 331.983C540.737 332.14 536.64 332.319 533.014 332.521C530.22 332.674 527.791 333.231 524.859 333.487C523.688 333.587 521.984 333.863 519.746 334.314C517.36 334.796 513.468 335.028 510.657 335.716C508.281 336.3 505.866 336.365 503.426 336.896C496.303 338.453 491.93 339.434 490.308 339.841C486.819 340.718 482.346 342.07 476.888 343.898C471.416 345.733 467.933 346.924 466.439 347.471C459.292 350.085 451.017 353.722 441.614 358.381C438.938 359.707 434.943 361.951 429.627 365.112C424.243 368.314 419.795 371.184 416.285 373.723C414.29 375.166 412.201 376.77 410.017 378.536C406.359 381.496 404.314 383.156 403.881 383.517C398.231 388.234 393.076 393.725 386.383 400.699C383.23 403.984 380.398 407.264 377.889 410.539C376.569 412.261 374.961 414.08 373.883 415.567C372.459 417.528 369.863 421.206 366.096 426.602C364.795 428.465 363.86 429.89 363.292 430.876C361.034 434.798 359.054 437.865 356.938 441.979C354.322 447.068 352.617 450.465 351.823 452.169C350.091 455.884 347.385 462.615 343.703 472.36C342.876 474.556 342.29 476.696 341.413 479.373C340.312 482.722 339.094 487.038 337.76 492.319C337.37 493.862 337.08 495.241 336.889 496.455C336.694 497.705 336.408 499.084 336.03 500.591C335.666 502.046 335.423 503.846 335.256 505.59C335.042 507.811 334.31 510.289 334.061 512.699C333.772 515.516 333.675 518.849 333.072 521.852C332.509 524.658 332.209 526.073 332.052 529.057C331.986 530.35 331.846 531.861 331.635 533.589C331.361 535.833 331.1 541.011 330.85 549.123C330.679 554.589 329.922 559.987 329.855 565.029C329.764 571.9 329.733 579.668 329.762 588.332C329.765 589.338 330.051 590.643 330.154 591.356C330.167 591.45 330.205 591.539 330.264 591.615C330.323 591.69 330.401 591.748 330.49 591.784ZM44.4425 333.334C44.2403 334.461 44.1535 335.211 44.1821 335.584C44.3355 337.552 44.4353 338.949 44.4318 340.593C44.4151 346.008 44.4841 349.306 44.6387 350.487C45.1702 354.559 45.4663 358.024 46.1084 361.49C46.5829 364.057 46.7649 364.938 47.1644 367.861C47.3237 369.028 47.5354 370.219 47.7994 371.434C49.155 377.695 50.3762 383.101 51.4631 387.653C52.4953 391.977 53.3205 395.044 53.9389 396.855C54.7118 399.121 55.5977 401.924 56.5966 405.266C58.844 412.796 61.78 420.252 64.9014 428.199C67.049 433.658 69.828 439.401 71.9934 443.698C73.9317 447.539 76.3028 451.769 79.1068 456.387C83.0523 462.886 87.1595 469.12 91.4285 475.091C94.2753 479.075 97.7499 483.737 101.852 489.078C105.044 493.231 108.249 497.057 111.466 500.555C116.097 505.587 119.579 509.18 121.912 511.334C125.329 514.485 128.818 517.772 132.378 521.192C136.438 525.089 139.87 528.109 143.577 531.025C149.358 535.57 155.53 540.095 162.091 544.599C167.245 548.136 171.929 551.139 176.143 553.609C186.795 559.848 196.795 565.193 207.543 569.735C214.086 572.499 217.396 573.897 217.475 573.928C220.716 575.178 222.857 575.999 223.896 576.392C225.28 576.915 227.558 577.661 230.728 578.631C230.754 578.638 233.11 579.347 237.795 580.759C238.589 580.999 240.841 581.664 244.551 582.752C248.135 583.803 252.05 584.723 256.295 585.512C259.085 586.033 261.129 586.692 263.897 587.049C266.655 587.409 269.134 588.051 271.717 588.339C272.271 588.404 274.835 588.81 279.408 589.559C282.779 590.111 287.303 590.236 291.131 591.003C293.345 591.445 295.029 591.709 296.182 591.794C297.552 591.896 298.426 591.398 298.804 590.3C299.546 588.147 299.902 585.873 299.871 583.48C299.849 581.977 299.877 576.303 299.953 566.455C300.012 558.987 299.917 551.707 299.667 544.617C299.482 539.368 298.993 534.244 298.201 529.243C298.034 528.187 297.873 526.319 297.745 525.456C297.017 520.524 296.614 516.511 296.535 513.416C296.492 511.797 296.168 510.592 295.74 508.891C295.436 507.672 295.283 506.271 295.197 505.226C295.03 503.244 293.977 500.662 293.71 498.908C293.489 497.463 293.193 496.261 292.822 495.303C292.724 495.056 292.402 493.587 291.855 490.897C291.163 487.506 289.358 482.322 288.22 478.596C287.761 477.098 287.209 475.488 286.564 473.765C283.021 464.283 280.926 458.731 280.279 457.107C279.185 454.357 278.038 451.877 276.84 449.666C275.206 446.65 273.526 443.238 271.699 440.264C268.153 434.488 265.449 430.247 263.587 427.539C259.644 421.804 256.791 417.732 255.029 415.324C252.448 411.799 250.568 409.338 249.389 407.94C247.85 406.119 244.669 402.549 239.846 397.23C237.853 395.031 235.87 393.069 233.896 391.343C230.061 387.988 227.713 385.724 223.679 381.984C222.254 380.662 220.688 379.355 218.98 378.062C217.962 377.29 216.345 376.031 214.129 374.286C212.276 372.827 209.165 370.685 204.796 367.861C200.951 365.373 197.72 363.311 195.104 361.675C191.819 359.619 188.845 357.953 186.182 356.677C184.334 355.792 180.017 353.878 173.232 350.933C168.616 348.926 163.379 346.975 159.68 345.734C153.446 343.643 146.757 341.651 139.613 339.759C138.093 339.357 136.954 339.045 136.196 338.821C133.634 338.069 131.037 337.719 128.629 337.088C125.954 336.386 123.11 336.315 120.374 335.619C119.038 335.282 117.67 335.051 116.272 334.928C113.413 334.676 110.344 334.292 107.064 333.776C105.07 333.462 103.108 333.355 100.807 333.12C96.3003 332.659 92.6069 332.402 89.7269 332.35C76.6013 332.119 65.5994 332.031 56.7214 332.086C56.1649 332.091 53.6654 332.002 49.2228 331.819C47.9742 331.769 45.3914 332.075 44.5852 333.031C44.5106 333.117 44.4612 333.222 44.4425 333.334Z" fill="white"/>
</svg>
