<svg width="200" height="19" viewBox="0 0 200 19" fill="none" xmlns="http://www.w3.org/2000/svg">
<g clip-path="url(#clip0_7481_379)">
<mask id="mask0_7481_379" style="mask-type:luminance" maskUnits="userSpaceOnUse" x="0" y="0" width="183" height="19">
<path d="M182.793 0H0V18.4086H182.793V0Z" fill="white"/>
</mask>
<g mask="url(#mask0_7481_379)">
<path d="M7.13208 14.7693C2.84751 14.7693 0.667969 11.6283 0.667969 7.93619C0.667969 4.24407 2.84751 1.10303 7.13208 1.10303C11.398 1.10303 13.5776 4.24407 13.5776 7.93619C13.5776 11.6283 11.398 14.7693 7.13208 14.7693ZM2.60535 7.93619C2.60535 10.7466 4.02112 13.0794 7.13208 13.0794C10.2431 13.0794 11.6402 10.7466 11.6402 7.93619C11.6402 5.12578 10.2431 2.79294 7.13208 2.79294C4.02112 2.79294 2.60535 5.12578 2.60535 7.93619ZM14.6143 4.9972H16.2908V6.44834C16.9614 5.40131 18.0605 4.77678 19.5322 4.77678C22.4196 4.77678 24.0031 6.90754 24.0031 9.77306C24.0031 12.6386 22.4196 14.7693 19.5322 14.7693C18.0978 14.7693 17.0545 14.1816 16.3653 13.208V18.2226H14.6143V4.9972ZM16.3467 9.77306C16.3467 11.7936 17.2967 13.2447 19.2528 13.2447C21.2273 13.2447 22.1775 11.7936 22.1775 9.77306C22.1775 7.7525 21.2273 6.30138 19.2528 6.30138C17.2967 6.30138 16.3467 7.7525 16.3467 9.77306ZM29.752 14.7693C26.9391 14.7693 25.1507 12.6386 25.1507 9.77306C25.1507 6.90754 26.9391 4.77678 29.752 4.77678C32.5465 4.77678 34.3348 6.88918 34.3348 9.8098V10.3609H26.995C27.1626 12.0875 28.1126 13.2631 29.752 13.2631C30.9816 13.2631 31.9131 12.657 32.3601 11.6466H34.1485C33.5338 13.5387 31.9131 14.7693 29.752 14.7693ZM27.0136 8.90969H32.4905C32.2297 7.33002 31.2984 6.28302 29.752 6.28302C28.1872 6.28302 27.2557 7.33002 27.0136 8.90969ZM41.8866 8.50563C41.8866 7.23818 41.2346 6.31975 39.7816 6.31975C39.055 6.31975 37.1549 6.68711 37.1549 9.22197V14.549H35.4038V4.9972H37.0804V6.37486C37.7324 5.47478 38.757 4.77678 40.1914 4.77678C42.5944 4.77678 43.6379 6.50343 43.6379 8.34028V14.549H41.8866V8.50563ZM50.9127 14.7693C47.8203 14.7693 45.4174 13.355 45.3243 10.1037H47.2056C47.2988 12.4365 49.0126 13.1529 50.9314 13.1529C52.7756 13.1529 54.0796 12.3998 54.0796 10.8936C54.0796 9.75465 53.4462 9.18524 50.4098 8.56077C47.336 7.93619 45.7526 6.99938 45.7526 4.59309C45.7526 2.46231 47.7272 1.10303 50.4098 1.10303C54.1355 1.10303 55.6631 3.05011 55.7189 5.45641H53.8561C53.7443 3.65628 52.7384 2.71948 50.4098 2.71948C48.7518 2.71948 47.6714 3.43585 47.6714 4.57471C47.6714 5.75031 48.0813 6.33811 51.1177 6.94429C55.0482 7.73414 55.9982 8.9281 55.9982 10.8752C55.9982 13.2631 53.9492 14.7693 50.9127 14.7693ZM61.7333 14.7693C58.7714 14.7693 56.983 12.6386 56.983 9.77306C56.983 6.90754 58.7714 4.77678 61.7333 4.77678C64.6953 4.77678 66.4836 6.90754 66.4836 9.77306C66.4836 12.6386 64.6953 14.7693 61.7333 14.7693ZM58.8086 9.77306C58.8086 11.7936 59.7587 13.2447 61.7333 13.2447C63.708 13.2447 64.658 11.7936 64.658 9.77306C64.658 7.7525 63.708 6.30138 61.7333 6.30138C59.7587 6.30138 58.8086 7.7525 58.8086 9.77306ZM69.2785 11.0405C69.2785 12.3079 69.9304 13.2263 71.3835 13.2263C72.11 13.2263 74.0101 12.859 74.0101 10.3242V4.9972H75.7612V14.549H74.0846V13.1713C73.4327 14.0713 72.4081 14.7693 70.9736 14.7693C68.5706 14.7693 67.5273 13.0427 67.5273 11.2059V4.9972H69.2785V11.0405ZM77.2428 14.549V4.9972H78.9194V6.65038C79.6645 5.27273 80.7636 4.88698 81.9745 4.88698H82.7196V6.54018H81.9185C80.2792 6.54018 78.9938 7.21981 78.9938 9.57098V14.549H77.2428ZM87.7841 14.7693C85.0082 14.7693 83.2199 12.6386 83.2199 9.77306C83.2199 6.90754 85.0082 4.77678 87.7841 4.77678C90.2431 4.77678 91.7333 6.19116 92.0316 8.26683H90.2247C89.9818 7.0545 89.0875 6.30138 87.7841 6.30138C85.9956 6.30138 85.0452 7.7525 85.0452 9.77306C85.0452 11.7936 85.9956 13.2447 87.7841 13.2447C89.1069 13.2447 90.0011 12.4548 90.2247 11.2059H92.0316C91.7518 13.3183 90.0936 14.7693 87.7841 14.7693ZM97.4885 14.7693C94.6756 14.7693 92.8872 12.6386 92.8872 9.77306C92.8872 6.90754 94.6756 4.77678 97.4885 4.77678C100.283 4.77678 102.071 6.88918 102.071 9.8098V10.3609H94.7318C94.8992 12.0875 95.8497 13.2631 97.4885 13.2631C98.7181 13.2631 99.6501 12.657 100.097 11.6466H101.885C101.27 13.5387 99.6501 14.7693 97.4885 14.7693ZM94.7504 8.90969H100.227C99.966 7.33002 99.0349 6.28302 97.4885 6.28302C95.9237 6.28302 94.9924 7.33002 94.7504 8.90969ZM110.577 14.549V2.97664H106.106V1.32345H116.948V2.97664H112.478V14.549H110.577ZM120.49 14.7693C117.528 14.7693 115.739 12.6386 115.739 9.77306C115.739 6.90754 117.528 4.77678 120.49 4.77678C123.452 4.77678 125.24 6.90754 125.24 9.77306C125.24 12.6386 123.452 14.7693 120.49 14.7693ZM117.565 9.77306C117.565 11.7936 118.515 13.2447 120.49 13.2447C122.465 13.2447 123.414 11.7936 123.414 9.77306C123.414 7.7525 122.465 6.30138 120.49 6.30138C118.515 6.30138 117.565 7.7525 117.565 9.77306ZM130.568 18.4431C127.941 18.4431 126.527 17.2307 126.321 15.2469H128.053C128.258 16.5143 129.189 16.992 130.587 16.992C131.966 16.992 133.455 16.5327 133.455 14.2918V13.1896C132.766 14.1449 131.724 14.7142 130.307 14.7142C127.421 14.7142 125.836 12.5835 125.836 9.73633C125.836 6.88918 127.421 4.77678 130.307 4.77678C131.778 4.77678 132.841 5.38294 133.53 6.39322V4.9972H135.225V14.2918C135.225 17.2123 133.176 18.4431 130.568 18.4431ZM127.662 9.73633C127.662 11.7569 128.612 13.1896 130.587 13.1896C132.543 13.1896 133.493 11.7569 133.493 9.73633C133.493 7.73413 132.543 6.28302 130.587 6.28302C128.612 6.28302 127.662 7.73413 127.662 9.73633ZM140.863 14.7693C138.05 14.7693 136.262 12.6386 136.262 9.77306C136.262 6.90754 138.05 4.77678 140.863 4.77678C143.657 4.77678 145.446 6.88918 145.446 9.8098V10.3609H138.106C138.274 12.0875 139.224 13.2631 140.863 13.2631C142.092 13.2631 143.024 12.657 143.471 11.6466H145.259C144.645 13.5387 143.024 14.7693 140.863 14.7693ZM138.124 8.90969H143.601C143.34 7.33002 142.409 6.28302 140.863 6.28302C139.298 6.28302 138.366 7.33002 138.124 8.90969ZM147.484 2.05821H149.253V4.9972H151.823V6.4667H149.253V12.1059C149.253 12.7856 149.532 13.0794 150.24 13.0794H151.823V14.549H149.869C148.192 14.549 147.484 13.8876 147.484 12.3079V6.4667H145.714V4.9972H147.484V2.05821ZM153.074 14.549V1.32345H154.825V6.28302C155.477 5.41968 156.483 4.77678 157.86 4.77678C160.264 4.77678 161.307 6.50343 161.307 8.34028V14.549H159.556V8.50563C159.556 7.23818 158.904 6.31975 157.452 6.31975C156.725 6.31975 154.825 6.68711 154.825 9.22197V14.549H153.074ZM166.943 14.7693C164.13 14.7693 162.341 12.6386 162.341 9.77306C162.341 6.90754 164.13 4.77678 166.943 4.77678C169.738 4.77678 171.525 6.88918 171.525 9.8098V10.3609H164.186C164.354 12.0875 165.303 13.2631 166.943 13.2631C168.173 13.2631 169.104 12.657 169.551 11.6466H171.339C170.724 13.5387 169.104 14.7693 166.943 14.7693ZM164.205 8.90969H169.681C169.421 7.33002 168.488 6.28302 166.943 6.28302C165.378 6.28302 164.447 7.33002 164.205 8.90969ZM172.595 14.549V4.9972H174.271V6.65038C175.016 5.27273 176.116 4.88698 177.327 4.88698H178.072V6.54018H177.27C175.631 6.54018 174.346 7.21981 174.346 9.57098V14.549H172.595Z" fill="black"/>
</g>
<path d="M183.981 2.29246C184.03 2.2505 184.084 2.20197 184.143 2.14689C184.191 2.10365 184.245 2.05864 184.306 2.01191C184.371 1.96154 184.444 1.89371 184.525 1.83551C184.643 1.74953 184.715 1.6963 184.742 1.67582C184.816 1.62004 184.895 1.56465 184.981 1.50963C185.199 1.36958 185.402 1.24462 185.594 1.14493C185.695 1.09246 185.767 1.05125 185.86 1.00736C185.936 0.97162 186.003 0.940107 186.06 0.912823C186.218 0.837904 186.366 0.774305 186.507 0.722027C186.513 0.719293 186.607 0.684504 186.786 0.617662C186.874 0.584655 186.968 0.553428 187.069 0.523982C187.23 0.476473 187.372 0.43523 187.495 0.40025C187.546 0.385877 187.588 0.374937 187.621 0.367433C187.681 0.354459 187.724 0.341484 187.792 0.329178C187.813 0.325427 187.863 0.314392 187.946 0.296076C188.03 0.277186 188.126 0.264595 188.223 0.246277C188.364 0.219662 188.512 0.210885 188.647 0.192473C188.7 0.185223 188.773 0.180835 188.816 0.180358C188.836 0.180103 188.879 0.175302 188.94 0.165953C188.991 0.158512 189.032 0.153869 189.067 0.152025C189.139 0.147954 189.335 0.138128 189.655 0.122547C189.695 0.120639 189.729 0.121561 189.76 0.125313C189.829 0.133804 189.906 0.123024 189.971 0.132468C190.014 0.13886 190.065 0.13657 190.109 0.138955C190.292 0.14894 190.413 0.155872 190.472 0.159752C190.548 0.164808 190.628 0.182075 190.698 0.185891C190.752 0.18888 190.794 0.193014 190.826 0.198293C190.919 0.21432 191.022 0.218612 191.113 0.239028C191.179 0.254005 191.253 0.258202 191.325 0.277283C191.407 0.298556 191.495 0.306283 191.574 0.329178C191.582 0.331786 191.61 0.336365 191.655 0.342916C191.671 0.345269 191.698 0.351057 191.735 0.360279C191.899 0.400855 192.075 0.449189 192.261 0.505284C192.379 0.540644 192.49 0.577436 192.591 0.615659C192.728 0.666697 192.882 0.716685 193.026 0.778025C193.266 0.880769 193.509 0.990572 193.746 1.12232C193.891 1.20264 193.986 1.25632 194.03 1.28334C194.279 1.43504 194.493 1.5726 194.703 1.73067C194.857 1.84629 195.047 1.98948 195.214 2.13735C195.28 2.19602 195.392 2.29342 195.49 2.38729C195.625 2.51946 195.71 2.60296 195.744 2.6378C195.788 2.68488 195.91 2.81824 196.109 3.0379C196.126 3.05692 196.163 3.09954 196.217 3.16574C196.283 3.24578 196.344 3.31027 196.406 3.39174C196.423 3.41151 196.45 3.4463 196.489 3.4961C196.591 3.62517 196.693 3.77266 196.779 3.91185C196.898 4.1064 196.999 4.27878 197.08 4.429C197.192 4.63524 197.299 4.85426 197.403 5.086C197.491 5.28196 197.575 5.49965 197.656 5.7391C197.71 5.90025 197.743 5.99737 197.751 6.03044C197.798 6.20826 197.842 6.34469 197.88 6.5062C197.913 6.6526 197.934 6.74526 197.942 6.78418C197.965 6.90051 197.988 7.04189 198.012 7.20832C198.022 7.27707 198.032 7.35122 198.045 7.43079C198.053 7.48021 198.063 7.55461 198.075 7.65402C198.091 7.79368 198.084 7.98944 198.09 8.10487C198.097 8.23718 198.102 8.35596 198.097 8.48322C198.09 8.72791 198.089 8.93264 198.075 9.17648C198.07 9.25133 198.063 9.3204 198.053 9.38368C198.036 9.48757 198.033 9.56532 198.016 9.66568C198.01 9.70358 197.995 9.79936 197.971 9.95302C197.964 9.99117 197.953 10.0498 197.935 10.1288C197.915 10.2252 197.894 10.3301 197.869 10.4284C197.8 10.6993 197.752 10.8813 197.725 10.9744C197.713 11.0125 197.69 11.0848 197.652 11.1915C197.633 11.2423 197.609 11.3145 197.577 11.4083C197.52 11.576 197.457 11.7386 197.388 11.8963C197.377 11.9218 197.346 11.9912 197.296 12.1047C197.212 12.2952 197.125 12.4612 197.022 12.6406C196.964 12.7402 196.912 12.8387 196.853 12.9319C196.788 13.0364 196.739 13.1135 196.709 13.163C196.683 13.2042 196.649 13.2455 196.622 13.2913C196.579 13.362 196.536 13.4254 196.493 13.4816C196.46 13.5225 196.432 13.5701 196.402 13.6074C196.295 13.741 196.233 13.817 196.219 13.8353C196.138 13.9388 196.028 14.0432 195.951 14.1371C195.895 14.2072 195.838 14.2702 195.782 14.326C195.698 14.4092 195.615 14.4934 195.532 14.5786C195.467 14.6458 195.391 14.7155 195.32 14.7866C195.297 14.8092 195.268 14.8355 195.231 14.8656C195.072 14.9965 194.969 15.0796 194.921 15.1149C194.854 15.1643 194.813 15.1953 194.798 15.2081C194.704 15.2872 194.644 15.3232 194.524 15.4088C194.481 15.4393 194.43 15.4741 194.371 15.513C194.238 15.6004 194.146 15.6599 194.096 15.6914C194.044 15.724 193.906 15.8043 193.679 15.9322C193.652 15.9477 193.602 15.9729 193.531 16.0079C193.44 16.0524 193.312 16.1158 193.204 16.1613C193.13 16.1923 193.039 16.2323 192.964 16.2608C192.659 16.3758 192.474 16.4438 192.407 16.4649C192.159 16.5436 191.978 16.5977 191.866 16.6273C191.815 16.6408 191.754 16.6553 191.682 16.6711C191.622 16.6842 191.446 16.7183 191.153 16.7734C191.057 16.7916 190.969 16.7966 190.881 16.8138C190.785 16.8328 190.684 16.8342 190.587 16.8427C190.574 16.8437 190.532 16.8501 190.458 16.8617C190.407 16.8697 190.348 16.8736 190.281 16.8734C190.088 16.8728 189.778 16.8819 189.552 16.8776C189.274 16.8724 189.132 16.8787 188.928 16.8463C188.822 16.8294 188.702 16.8309 188.601 16.8106C188.559 16.8024 188.514 16.7964 188.467 16.7928C188.382 16.7864 188.287 16.7621 188.196 16.7514C188.136 16.7443 188.082 16.7282 188.015 16.7166C187.853 16.6888 187.772 16.6747 187.772 16.6747C187.709 16.6645 187.649 16.6448 187.598 16.6368C187.537 16.6276 187.474 16.6057 187.406 16.5909C187.382 16.5857 187.356 16.5789 187.33 16.5705C187.175 16.5218 187.048 16.4872 186.91 16.4383C186.802 16.3998 186.726 16.3796 186.632 16.3405C186.566 16.3132 186.481 16.2791 186.375 16.2384C186.309 16.2128 186.235 16.1772 186.18 16.1539C186.033 16.0923 185.919 16.04 185.837 15.9967C185.772 15.9617 185.66 15.914 185.599 15.878C185.489 15.8132 185.38 15.7485 185.271 15.6841C185.217 15.6523 185.187 15.6347 185.181 15.631C185.151 15.6132 185.122 15.5947 185.093 15.5755C184.955 15.4855 184.805 15.3803 184.64 15.26C184.551 15.1956 184.474 15.1277 184.391 15.064C184.306 14.9989 184.24 14.9428 184.151 14.8693C184.123 14.846 184.091 14.8184 184.058 14.7868C183.886 14.6276 183.786 14.5328 183.756 14.5022C183.735 14.481 183.638 14.3806 183.466 14.2009C183.42 14.1534 183.373 14.1002 183.325 14.0413C183.31 14.0225 183.264 13.97 183.191 13.8837C183.162 13.8493 183.107 13.7829 183.025 13.6843C182.984 13.634 182.947 13.5847 182.912 13.5364C182.871 13.48 182.774 13.3576 182.715 13.2695C182.641 13.158 182.581 13.0746 182.522 12.9726C182.482 12.9032 182.407 12.7942 182.354 12.7007C182.302 12.6082 182.242 12.494 182.171 12.3581C182.061 12.1432 181.966 11.9389 181.885 11.7448C181.855 11.6744 181.8 11.5296 181.72 11.3104C181.681 11.205 181.654 11.1224 181.636 11.0626C181.596 10.9244 181.549 10.7884 181.513 10.6382C181.485 10.5214 181.473 10.4558 181.447 10.3655C181.433 10.318 181.429 10.2653 181.418 10.2222C181.398 10.1526 181.396 10.0842 181.378 10.0155C181.364 9.96437 181.362 9.91343 181.348 9.86353C181.341 9.83638 181.334 9.79688 181.328 9.74504C181.316 9.65338 181.291 9.54586 181.287 9.46792C181.277 9.3026 181.275 9.22675 181.262 9.09453C181.259 9.06057 181.252 8.97525 181.243 8.83857C181.237 8.753 181.236 8.69797 181.235 8.60332C181.233 8.51391 181.235 8.3565 181.243 8.13111C181.246 8.04442 181.251 7.97141 181.258 7.91207C181.271 7.80284 181.273 7.74598 181.282 7.63294C181.291 7.51093 181.314 7.40503 181.326 7.27463C181.33 7.23093 181.335 7.19754 181.341 7.17445C181.348 7.14729 181.355 7.10479 181.362 7.04691C181.368 6.99111 181.387 6.927 181.395 6.86384C181.397 6.84616 181.401 6.82839 181.405 6.81052C181.432 6.68046 181.456 6.57653 181.476 6.49876C181.492 6.43516 181.504 6.38742 181.512 6.35556C181.522 6.31104 181.534 6.26347 181.549 6.21285C181.59 6.06726 181.62 5.95717 181.664 5.8365C181.703 5.72997 181.725 5.66968 181.729 5.65563C181.738 5.62844 181.755 5.59476 181.766 5.56338C181.802 5.46359 181.843 5.36145 181.89 5.25696C181.914 5.20347 181.932 5.16112 181.945 5.12989C181.998 5.00199 182.068 4.85346 182.154 4.68428C182.168 4.65503 182.188 4.62014 182.21 4.57963C182.234 4.53632 182.252 4.50119 182.264 4.47421C182.274 4.45457 182.29 4.43444 182.297 4.41803C182.304 4.39978 182.336 4.34473 182.39 4.2529C182.505 4.0579 182.592 3.91776 182.65 3.83248C182.657 3.82325 182.726 3.72538 182.859 3.53885C182.893 3.49089 182.924 3.44987 182.952 3.41578C182.995 3.36303 183.037 3.29977 183.077 3.25189C183.152 3.16211 183.223 3.06281 183.302 2.98019C183.365 2.91328 183.421 2.85159 183.47 2.79512C183.514 2.74488 183.554 2.70067 183.591 2.66252C183.722 2.52839 183.853 2.40504 183.981 2.29246ZM190.105 1.24175C190.102 1.24498 190.101 1.24895 190.101 1.25311C190.1 1.28773 190.096 1.31425 190.098 1.34545C190.104 1.45478 190.106 1.57969 190.106 1.72018C190.106 1.75595 190.111 1.80498 190.112 1.83484C190.119 1.98824 190.127 2.13268 190.131 2.27769C190.132 2.30821 190.135 2.35451 190.142 2.41658C190.158 2.55739 190.168 2.62273 190.172 2.73521C190.174 2.79474 190.176 2.86768 190.181 2.95405C190.185 3.00729 190.192 3.0587 190.195 3.1063C190.198 3.14294 190.202 3.18091 190.207 3.22021C190.22 3.30848 190.231 3.38951 190.24 3.46329C190.251 3.55305 190.27 3.62938 190.283 3.71238C190.292 3.76624 190.306 3.82774 190.325 3.89687C190.395 4.14522 190.437 4.28879 190.451 4.32759C190.478 4.41077 190.515 4.51225 190.564 4.632C190.645 4.83698 190.74 5.03192 190.851 5.2168C190.853 5.22074 190.888 5.27804 190.955 5.3887C191.021 5.49526 191.096 5.60163 191.163 5.70179C191.213 5.77793 191.28 5.8592 191.33 5.92675C191.355 5.96312 191.401 6.01572 191.464 6.08454C191.468 6.08873 191.515 6.14114 191.606 6.24176C191.635 6.27463 191.709 6.34644 191.824 6.45716C191.886 6.5166 191.926 6.56058 191.978 6.60512C191.999 6.62223 192.041 6.66131 192.105 6.72236C192.165 6.77954 192.226 6.83274 192.288 6.88197C192.419 6.98575 192.552 7.07985 192.687 7.16425C192.943 7.32308 193.179 7.43671 193.46 7.56873C193.507 7.59055 193.623 7.63643 193.809 7.70639C193.887 7.73635 193.952 7.7588 194.001 7.77374C194.121 7.81012 194.186 7.82945 194.196 7.83175C194.263 7.84637 194.311 7.85782 194.34 7.86609C194.399 7.88259 194.452 7.88546 194.504 7.90092C194.585 7.92514 194.687 7.9323 194.77 7.95042C194.841 7.96626 194.935 7.97284 195.001 7.98716C195.078 8.00385 195.136 8.00385 195.217 8.01329C195.362 8.03021 195.469 8.03984 195.54 8.0422C195.571 8.04321 195.623 8.04847 195.695 8.05794C195.751 8.06513 195.82 8.06939 195.906 8.07071C196.337 8.07753 196.604 8.07975 196.706 8.0774C196.802 8.07517 196.857 8.07409 196.871 8.07415C196.924 8.07425 196.955 8.06061 196.95 8.0049C196.947 7.96228 196.945 7.93281 196.945 7.91646C196.944 7.77651 196.926 7.6066 196.915 7.48269C196.907 7.40141 196.898 7.33933 196.888 7.29647C196.879 7.26072 196.873 7.2289 196.869 7.20098C196.856 7.10262 196.838 7.02564 196.816 6.902C196.804 6.8315 196.78 6.7507 196.766 6.68249C196.747 6.5889 196.712 6.45763 196.678 6.34564C196.652 6.26045 196.62 6.14807 196.59 6.06126C196.518 5.85596 196.447 5.66545 196.352 5.46951C196.262 5.28271 196.215 5.17863 196.14 5.04985C196.094 4.96905 196.056 4.89712 196.009 4.81822C195.957 4.73154 195.904 4.64641 195.852 4.56284C195.793 4.47012 195.743 4.40248 195.693 4.32368C195.631 4.22743 195.551 4.13021 195.477 4.02671C195.45 3.98836 195.418 3.94871 195.384 3.90774C195.333 3.84822 195.213 3.69854 195.124 3.60333C195.036 3.50841 194.951 3.4092 194.852 3.32181C194.796 3.27211 194.757 3.22412 194.7 3.175C194.655 3.13499 194.609 3.0912 194.561 3.04363C194.518 2.99975 194.473 2.96807 194.432 2.92743C194.414 2.90848 194.379 2.88054 194.33 2.84358C194.317 2.83379 194.271 2.79677 194.193 2.73254C194.12 2.67218 194.019 2.59584 193.892 2.50349C193.806 2.44211 193.676 2.3582 193.5 2.25173C193.434 2.21199 193.359 2.16778 193.274 2.11913C193.185 2.06742 193.116 2.02993 193.068 2.00665C192.874 1.91222 192.711 1.83551 192.535 1.75948C192.421 1.71051 192.313 1.66898 192.212 1.63489C192.054 1.58192 191.948 1.54732 191.895 1.53109C191.855 1.51915 191.748 1.48909 191.573 1.44095C191.51 1.42368 191.447 1.41558 191.39 1.39715C191.376 1.39258 191.34 1.38495 191.283 1.37427C191.213 1.36082 191.171 1.34708 191.099 1.33849C191.078 1.33588 191.052 1.3314 191.022 1.32503C190.899 1.29839 190.766 1.27864 190.622 1.2658C190.52 1.25664 190.405 1.24497 190.279 1.23078C190.221 1.22429 190.171 1.22341 190.128 1.22811C190.12 1.22913 190.111 1.23368 190.105 1.24175ZM189.235 1.28707C189.234 1.2859 189.233 1.28488 189.232 1.28407C189.231 1.28327 189.23 1.2827 189.229 1.28239C189.194 1.27425 189.161 1.27012 189.131 1.26999C189.036 1.26961 188.942 1.27037 188.849 1.27228C188.738 1.27458 188.615 1.29738 188.524 1.30443C188.508 1.3057 188.488 1.30857 188.467 1.31302C188.411 1.32408 188.378 1.33143 188.323 1.33944C188.261 1.3485 188.203 1.3631 188.14 1.3734C188.019 1.39363 187.91 1.41558 187.814 1.43923C187.795 1.44375 187.719 1.46441 187.583 1.50124C187.482 1.52858 187.406 1.5511 187.353 1.56878C187.226 1.61238 187.1 1.64701 186.968 1.69795C186.756 1.77993 186.545 1.87355 186.332 1.9788C186.243 2.02249 186.141 2.07839 186.026 2.1465C185.978 2.17436 185.921 2.20327 185.864 2.23905C185.85 2.2484 185.781 2.29297 185.658 2.37279C185.568 2.43137 185.493 2.49071 185.419 2.53764C185.368 2.57036 185.324 2.60699 185.274 2.64334C185.197 2.69944 185.12 2.76765 185.045 2.82478C185.001 2.85869 184.96 2.89246 184.923 2.9261C184.753 3.08332 184.568 3.25531 184.402 3.43515C184.355 3.48558 184.298 3.54571 184.23 3.61554C184.12 3.7283 184.02 3.85937 183.927 3.96727C183.884 4.01678 183.85 4.06973 183.81 4.11695C183.786 4.14627 183.757 4.18417 183.726 4.23067C183.699 4.26979 183.663 4.32178 183.617 4.38664C183.569 4.45447 183.533 4.52029 183.491 4.5824C183.459 4.63226 183.429 4.68181 183.401 4.73103C183.284 4.93925 183.219 5.05408 183.207 5.07552C183.207 5.07583 183.171 5.14509 183.101 5.28328C183.038 5.40492 182.976 5.55603 182.917 5.69111C182.886 5.764 182.855 5.8489 182.829 5.91434C182.808 5.96649 182.788 6.02287 182.768 6.08348C182.712 6.25152 182.665 6.39909 182.628 6.52623C182.613 6.57723 182.6 6.63383 182.587 6.69604C182.567 6.79214 182.555 6.84921 182.551 6.86728C182.538 6.91764 182.529 6.95851 182.525 6.98986C182.52 7.03514 182.513 7.0727 182.508 7.10253C182.482 7.23036 182.472 7.30592 182.448 7.41057C182.437 7.4555 182.432 7.50682 182.422 7.557C182.416 7.58762 182.409 7.61424 182.406 7.6483C182.403 7.69438 182.4 7.73702 182.391 7.78777C182.381 7.84396 182.379 7.90044 182.368 7.95471C182.36 7.99726 182.348 8.04582 182.398 8.063C182.424 8.07152 182.451 8.07615 182.482 8.07692C182.827 8.0857 183.191 8.08926 183.575 8.0876C183.689 8.08709 183.795 8.08529 183.89 8.08216C183.983 8.07912 184.07 8.06519 184.163 8.05717C184.271 8.04795 184.334 8.04159 184.351 8.0381C184.46 8.01577 184.559 8.0046 184.663 7.9798C184.803 7.94673 184.916 7.91926 185.001 7.89738C185.134 7.86316 185.276 7.82205 185.429 7.77404C185.53 7.74236 185.615 7.70726 185.723 7.66757C185.909 7.59936 186.064 7.528 186.248 7.43833C186.309 7.40907 186.377 7.3724 186.455 7.32834C186.601 7.24619 186.674 7.20765 186.787 7.13268C186.98 7.00331 187.165 6.86336 187.339 6.7092C187.377 6.67543 187.418 6.63876 187.463 6.5992C187.484 6.58089 187.528 6.53768 187.596 6.46956C187.639 6.42746 187.681 6.38154 187.722 6.33181C187.768 6.27562 187.836 6.20549 187.892 6.13614C187.943 6.06985 187.995 6.01013 188.042 5.94507C188.063 5.91504 188.105 5.85978 188.165 5.77927C188.211 5.71964 188.246 5.65486 188.292 5.58942C188.339 5.52016 188.392 5.43339 188.449 5.32908C188.484 5.26612 188.52 5.20612 188.55 5.14163C188.613 5.00473 188.693 4.85066 188.737 4.74019C188.751 4.70553 188.778 4.62857 188.816 4.50933C188.828 4.47326 188.842 4.4414 188.852 4.40601C188.858 4.38076 188.867 4.35485 188.876 4.32826C188.908 4.24882 188.932 4.17031 188.949 4.09272C188.971 3.99551 189 3.8902 189.019 3.78506C189.029 3.73571 189.035 3.70209 189.041 3.68422C189.059 3.62041 189.062 3.55993 189.079 3.49334C189.095 3.43095 189.101 3.34843 189.111 3.29701C189.135 3.17995 189.141 3.05861 189.145 2.93325C189.146 2.90229 189.15 2.86203 189.16 2.81248C189.172 2.74755 189.179 2.67448 189.18 2.59326C189.185 2.43012 189.185 2.35094 189.195 2.21281C189.201 2.14578 189.206 2.06895 189.209 1.98233C189.213 1.91088 189.22 1.85211 189.225 1.79392C189.229 1.7466 189.222 1.70549 189.229 1.66427C189.233 1.63387 189.235 1.6015 189.235 1.56716C189.235 1.51622 189.24 1.45474 189.247 1.38275C189.251 1.35404 189.248 1.30901 189.235 1.28707ZM189.631 11.5081C189.666 11.548 189.705 11.4954 189.714 11.4632C189.738 11.3918 189.75 11.3556 189.75 11.3547C189.846 11.1086 189.961 10.8736 190.094 10.6496C190.159 10.5393 190.228 10.4292 190.3 10.3195C190.329 10.2758 190.358 10.241 190.391 10.1946C190.433 10.1354 190.461 10.0983 190.473 10.0835C190.546 9.99728 190.613 9.90684 190.692 9.82594C190.814 9.70104 190.914 9.59967 190.994 9.52182C191.057 9.46127 191.117 9.40833 191.173 9.36298C191.233 9.31446 191.278 9.27903 191.304 9.25671C191.382 9.18992 191.484 9.11685 191.558 9.06352C191.584 9.04496 191.667 8.99125 191.807 8.9024C191.894 8.84796 191.974 8.80223 192.047 8.76522C192.199 8.68845 192.281 8.64706 192.293 8.64101C192.38 8.59967 192.487 8.55232 192.615 8.49897C192.65 8.48408 192.665 8.4692 192.659 8.43219C192.659 8.43051 192.658 8.42893 192.657 8.42758C192.656 8.42623 192.655 8.42516 192.654 8.42445C192.599 8.39831 192.545 8.378 192.494 8.36349C192.466 8.35567 192.439 8.34184 192.41 8.33087C192.338 8.30349 192.27 8.26876 192.199 8.23748C192.141 8.21204 192.093 8.18835 192.052 8.1664C192.018 8.14822 191.955 8.11562 191.863 8.06862C191.8 8.03656 191.733 7.99781 191.664 7.95233C191.524 7.8618 191.44 7.80914 191.331 7.72309C191.262 7.66954 191.22 7.6351 191.203 7.61977C191.082 7.51166 191.014 7.45111 191 7.43814C190.857 7.30865 190.719 7.16647 190.586 7.01161C190.524 6.9392 190.465 6.85764 190.404 6.78246C190.314 6.6718 190.228 6.55033 190.145 6.41804C190.079 6.31393 190.045 6.26125 190.044 6.25997C190.005 6.19911 189.974 6.14559 189.949 6.09942C189.859 5.93349 189.782 5.76839 189.72 5.60412C189.709 5.57861 189.7 5.56302 189.693 5.55737C189.675 5.54598 189.658 5.54484 189.64 5.55393C189.634 5.55654 189.63 5.56076 189.627 5.56605C189.605 5.60312 189.593 5.63021 189.589 5.64733C189.573 5.71945 189.547 5.79252 189.512 5.86656C189.484 5.92513 189.445 6.00688 189.393 6.11182C189.312 6.27619 189.229 6.41661 189.138 6.55085C189.072 6.64815 188.99 6.75766 188.893 6.87939C188.746 7.06344 188.574 7.24423 188.379 7.42172C188.378 7.42198 188.314 7.47802 188.187 7.58982C188.129 7.6401 188.071 7.68007 188.015 7.72662C187.94 7.78796 187.862 7.83661 187.78 7.89623C187.75 7.91843 187.714 7.94117 187.675 7.96444C187.515 8.05997 187.355 8.1466 187.194 8.22431C187.099 8.26972 186.995 8.30635 186.879 8.35224C186.837 8.36871 186.756 8.39446 186.635 8.42951C186.618 8.43453 186.61 8.44655 186.61 8.46557C186.612 8.47155 186.613 8.47738 186.616 8.48245C186.619 8.4875 186.623 8.49163 186.629 8.49438C186.641 8.50005 186.661 8.50789 186.69 8.51795C186.697 8.52005 186.716 8.52834 186.751 8.54285C186.869 8.59251 186.936 8.62126 186.954 8.62909C187.103 8.69345 187.269 8.77358 187.449 8.86948C187.526 8.91076 187.639 8.9789 187.785 9.07392C187.863 9.12525 187.93 9.18019 188.005 9.23228C188.058 9.2695 188.111 9.31048 188.162 9.35525C188.255 9.43662 188.347 9.51076 188.432 9.59289C188.479 9.63684 188.518 9.67601 188.549 9.71041C188.687 9.85739 188.82 10.0175 188.949 10.1907C188.993 10.2487 189.038 10.32 189.088 10.3938C189.121 10.4407 189.154 10.4926 189.188 10.5494C189.24 10.6358 189.271 10.6911 189.284 10.7154C189.326 10.7946 189.392 10.9254 189.482 11.1079C189.535 11.2164 189.573 11.3212 189.595 11.4228C189.602 11.4527 189.614 11.4884 189.631 11.5081ZM190.087 15.8396C190.134 15.8581 190.19 15.8398 190.238 15.8376C190.302 15.8344 190.363 15.8255 190.417 15.8108C190.434 15.8063 190.453 15.8028 190.472 15.8003C190.524 15.7938 190.553 15.7914 190.609 15.7794C190.645 15.772 190.681 15.7669 190.715 15.7643C190.749 15.7618 190.779 15.755 190.816 15.7501C190.879 15.7418 190.958 15.7232 191 15.7165C191.049 15.7085 191.086 15.7017 191.108 15.696C191.173 15.6794 191.24 15.6727 191.308 15.6573C191.474 15.6199 191.651 15.5728 191.837 15.5159C191.955 15.4792 192.075 15.4368 192.195 15.3889C192.39 15.311 192.507 15.2629 192.547 15.2448C192.721 15.1661 192.854 15.104 192.945 15.0584C193.08 14.9909 193.248 14.8964 193.453 14.7749C193.572 14.7038 193.686 14.6207 193.792 14.554C193.839 14.5239 193.905 14.4777 193.989 14.4153C194.097 14.3357 194.161 14.2873 194.183 14.2701C194.343 14.1387 194.487 14.0251 194.643 13.8783C194.806 13.7226 194.911 13.6212 194.954 13.5742C195.116 13.4018 195.232 13.2692 195.305 13.1763C195.356 13.112 195.401 13.0556 195.441 13.0069C195.49 12.9477 195.523 12.8947 195.573 12.8313C195.606 12.7896 195.639 12.7453 195.671 12.6986C195.763 12.5634 195.818 12.4827 195.835 12.4564C195.842 12.4453 195.887 12.3694 195.972 12.229C196.007 12.1684 196.043 12.1046 196.078 12.0377C196.137 11.9234 196.17 11.8586 196.177 11.8432C196.224 11.7461 196.304 11.5788 196.358 11.444C196.393 11.3587 196.414 11.3069 196.42 11.2888C196.492 11.0943 196.534 10.982 196.545 10.9521C196.577 10.87 196.602 10.7918 196.623 10.7173C196.637 10.6621 196.657 10.6206 196.669 10.5672C196.672 10.5505 196.683 10.5128 196.702 10.454C196.758 10.2667 196.801 10.0784 196.83 9.889C196.837 9.84168 196.843 9.80519 196.85 9.77949C196.864 9.71824 196.869 9.65395 196.884 9.58249C196.896 9.53012 196.9 9.46849 196.911 9.41898C196.924 9.35945 196.926 9.31833 196.942 9.24201C196.947 9.21308 196.951 9.17905 196.955 9.13993C196.963 9.02928 196.968 8.96571 196.968 8.94924C196.966 8.92971 196.964 8.91305 196.958 8.89925C196.958 8.89757 196.957 8.89606 196.956 8.89485C196.953 8.89364 196.952 8.89276 196.95 8.89228C196.876 8.87269 196.811 8.86208 196.757 8.86042C196.562 8.85476 196.374 8.85795 196.19 8.86996C196.042 8.87975 195.932 8.88586 195.86 8.88828C195.738 8.89248 195.628 8.89728 195.531 8.90268C195.455 8.90678 195.39 8.92167 195.311 8.92853C195.28 8.9312 195.234 8.93859 195.174 8.95068C195.11 8.96355 195.005 8.96975 194.93 8.98816C194.866 9.00381 194.801 9.00552 194.735 9.01974C194.544 9.06139 194.427 9.08766 194.383 9.09854C194.289 9.12201 194.169 9.15819 194.023 9.2071C193.876 9.2562 193.781 9.28806 193.741 9.30268C193.549 9.37264 193.327 9.46995 193.074 9.59461C193.002 9.63009 192.895 9.69013 192.752 9.77472C192.607 9.86039 192.487 9.93718 192.393 10.0051C192.34 10.0437 192.284 10.0866 192.225 10.1339C192.126 10.2131 192.072 10.2575 192.06 10.2672C191.908 10.3934 191.77 10.5403 191.59 10.7269C191.505 10.8148 191.429 10.9025 191.362 10.9902C191.326 11.0363 191.283 11.0849 191.254 11.1247C191.216 11.1771 191.146 11.2756 191.045 11.42C191.009 11.4698 190.985 11.508 190.97 11.5343C190.909 11.6393 190.856 11.7213 190.799 11.8314C190.728 11.9675 190.683 12.0585 190.661 12.1041C190.615 12.2034 190.541 12.3836 190.443 12.6443C190.42 12.703 190.405 12.7603 190.381 12.8319C190.352 12.9215 190.319 13.037 190.283 13.1783C190.273 13.2196 190.265 13.2564 190.26 13.289C190.255 13.3224 190.247 13.3594 190.237 13.3997C190.227 13.4386 190.22 13.4867 190.216 13.5334C190.211 13.5929 190.19 13.6592 190.184 13.7236C190.176 13.7989 190.174 13.8881 190.158 13.9685C190.142 14.0436 190.134 14.0814 190.129 14.1613C190.128 14.1959 190.124 14.2364 190.119 14.2825C190.111 14.3426 190.105 14.4811 190.097 14.6982C190.093 14.8445 190.072 14.9889 190.071 15.1237C190.068 15.3076 190.068 15.5155 190.068 15.7473C190.068 15.7742 190.077 15.8092 190.079 15.8282C190.079 15.8307 190.08 15.8331 190.082 15.8351C190.083 15.8372 190.085 15.8387 190.087 15.8396ZM182.401 8.92444C182.395 8.95458 182.393 8.97464 182.394 8.98463C182.397 9.03729 182.401 9.07469 182.401 9.11867C182.4 9.26355 182.402 9.35179 182.406 9.38339C182.42 9.49234 182.429 9.58507 182.445 9.6778C182.458 9.74648 182.463 9.77004 182.474 9.84827C182.478 9.8795 182.484 9.91136 182.491 9.94386C182.527 10.1114 182.561 10.256 182.59 10.3778C182.617 10.4935 182.64 10.5756 182.656 10.624C182.676 10.6846 182.7 10.7597 182.727 10.8491C182.788 11.0505 182.867 11.25 182.951 11.4627C183.008 11.6087 183.083 11.7625 183.141 11.8774C183.193 11.9802 183.257 12.0934 183.333 12.217C183.438 12.3908 183.549 12.5576 183.663 12.7174C183.74 12.824 183.833 12.9486 183.943 13.0916C184.029 13.2027 184.115 13.3051 184.202 13.3987C184.326 13.5333 184.42 13.6294 184.483 13.687C184.575 13.7714 184.668 13.8594 184.764 13.9508C184.873 14.0552 184.965 14.1359 185.064 14.214C185.22 14.3356 185.386 14.4566 185.563 14.5771C185.701 14.6718 185.827 14.7522 185.94 14.8182C186.227 14.9851 186.495 15.1282 186.783 15.2497C186.96 15.3236 187.048 15.361 187.05 15.3619C187.138 15.3953 187.195 15.4174 187.223 15.4279C187.26 15.4418 187.322 15.4618 187.407 15.4877C187.407 15.4877 187.471 15.5069 187.596 15.5447C187.618 15.5511 187.679 15.5688 187.778 15.598C187.874 15.6261 187.98 15.6507 188.094 15.6719C188.169 15.6858 188.223 15.7034 188.298 15.7129C188.373 15.7226 188.439 15.7398 188.509 15.7475C188.523 15.7492 188.592 15.7601 188.715 15.7801C188.806 15.7949 188.927 15.7982 189.03 15.8188C189.089 15.8306 189.135 15.8376 189.166 15.84C189.203 15.8427 189.226 15.8294 189.236 15.8C189.256 15.7423 189.266 15.6815 189.265 15.6175C189.265 15.5773 189.266 15.4255 189.267 15.1619C189.269 14.9621 189.267 14.7673 189.259 14.5777C189.255 14.4372 189.242 14.3 189.22 14.1663C189.216 14.138 189.212 14.088 189.208 14.065C189.188 13.933 189.177 13.8256 189.175 13.7428C189.174 13.6995 189.165 13.6673 189.154 13.6217C189.146 13.5891 189.141 13.5516 189.139 13.5237C189.135 13.4706 189.107 13.4015 189.099 13.3546C189.094 13.3159 189.085 13.2838 189.075 13.2582C189.073 13.2516 189.065 13.2122 189.049 13.1402C189.031 13.0495 188.982 12.9108 188.952 12.8111C188.939 12.771 188.925 12.728 188.908 12.6818C188.813 12.4282 188.755 12.2797 188.738 12.2362C188.709 12.1626 188.679 12.0962 188.646 12.0371C188.602 11.9564 188.558 11.865 188.508 11.7855C188.413 11.631 188.34 11.5175 188.289 11.445C188.183 11.2916 188.108 11.1827 188.06 11.1182C187.991 11.0238 187.94 10.958 187.909 10.9206C187.867 10.8719 187.781 10.7764 187.652 10.6341C187.599 10.5752 187.545 10.5227 187.492 10.4766C187.389 10.3868 187.326 10.3262 187.217 10.2261C187.179 10.1908 187.137 10.1558 187.092 10.1212C187.063 10.1005 187.02 10.0669 186.961 10.0202C186.911 9.98113 186.828 9.92383 186.71 9.84827C186.606 9.78168 186.52 9.72651 186.449 9.68275C186.361 9.62774 186.282 9.58316 186.209 9.54901C186.16 9.52535 186.044 9.47412 185.861 9.39533C185.738 9.34162 185.597 9.28943 185.498 9.25623C185.33 9.20026 185.15 9.14697 184.959 9.09634C184.917 9.0856 184.887 9.07723 184.867 9.07125C184.797 9.05112 184.728 9.04178 184.663 9.02489C184.591 9.00609 184.515 9.00419 184.442 8.98558C184.405 8.97656 184.368 8.97038 184.331 8.96708C184.255 8.96034 184.171 8.95007 184.084 8.93626C184.03 8.92787 183.977 8.92501 183.915 8.91871C183.794 8.90637 183.695 8.89951 183.618 8.89811C183.264 8.89194 182.969 8.88958 182.73 8.89104C182.715 8.89117 182.648 8.88879 182.529 8.88389C182.496 8.88255 182.427 8.89076 182.405 8.91633C182.403 8.91863 182.402 8.92144 182.401 8.92444Z" fill="black"/>
</g>
<defs>
<clipPath id="clip0_7481_379">
<rect width="200" height="18.4086" fill="white"/>
</clipPath>
</defs>
</svg>
