<svg width="15" height="15" viewBox="0 0 15 15" fill="none" xmlns="http://www.w3.org/2000/svg">
<path fill-rule="evenodd" clip-rule="evenodd" d="M6.97936 1.25171L6.95844 1.30199L5.58656 4.60039C5.54336 4.70426 5.44567 4.77523 5.33354 4.78422L1.77264 5.0697L1.71835 5.07405L1.38681 5.10063L1.08602 5.12475C0.820024 5.14607 0.712167 5.47802 0.914828 5.65162L1.144 5.84793L1.3966 6.06431L1.43796 6.09974L4.15099 8.42374C4.23642 8.49692 4.27374 8.61176 4.24763 8.72118L3.41876 12.196L3.40612 12.249L3.32895 12.5725L3.25893 12.866C3.19702 13.1256 3.47939 13.3308 3.70712 13.1917L3.96464 13.0344L4.24848 12.861L4.29496 12.8326L7.34359 10.9705C7.43959 10.9119 7.56034 10.9119 7.65634 10.9705L10.7049 12.8326L10.7514 12.861L11.0353 13.0344L11.2928 13.1917C11.5205 13.3308 11.8029 13.1256 11.741 12.866L11.6709 12.5725L11.5938 12.249L11.5811 12.196L10.7523 8.72118C10.7262 8.61176 10.7635 8.49692 10.8489 8.42374L13.5619 6.09974L13.6033 6.06431L13.8559 5.84793L14.0851 5.65162C14.2877 5.47802 14.1799 5.14607 13.9139 5.12475L13.6131 5.10063L13.2815 5.07405L13.2273 5.0697L9.66639 4.78422C9.55426 4.77523 9.45657 4.70426 9.41337 4.60039L8.04149 1.30199L8.02058 1.25171L7.89285 0.944609L7.77696 0.665992C7.67448 0.419604 7.32545 0.419604 7.22297 0.665992L7.10709 0.944609L6.97936 1.25171ZM7.49997 2.60397L6.50988 4.98442C6.32267 5.43453 5.89938 5.74207 5.41345 5.78103L2.84355 5.98705L4.80154 7.66428C5.17177 7.98142 5.33345 8.47903 5.22034 8.95321L4.62215 11.461L6.82234 10.1171C7.23836 9.86302 7.76158 9.86302 8.1776 10.1171L10.3777 11.461L9.77959 8.95321C9.66648 8.47903 9.82816 7.98142 10.1983 7.66428L12.1563 5.98705L9.58648 5.78103C9.10055 5.74207 8.67726 5.43453 8.49005 4.98442L7.49997 2.60397Z" fill="black" fill-opacity="0.5"/>
</svg>
